<svg width="51" height="45" viewBox="0 0 51 45" fill="none" xmlns="http://www.w3.org/2000/svg">
<circle cx="35.8987" cy="25.5804" r="14.1487" fill="#7F56D9"/>
<rect x="10.8125" y="14.7588" width="26.9585" height="23.2981" rx="5.16383" transform="rotate(-9.65041 10.8125 14.7588)" fill="#FF5277"/>
<mask id="mask0_4092_79837" style="mask-type:alpha" maskUnits="userSpaceOnUse" x="11" y="11" width="30" height="26">
<rect x="10.7969" y="14.7607" width="26.9585" height="23.3015" rx="5.16383" transform="rotate(-9.65041 10.7969 14.7607)" fill="#FF5277"/>
</mask>
<g mask="url(#mask0_4092_79837)">
<g filter="url(#filter0_f_4092_79837)">
<circle cx="38.9393" cy="16.8099" r="20.2189" transform="rotate(-9.65041 38.9393 16.8099)" fill="white"/>
</g>
</g>
<rect x="8" y="14.3252" width="32.3502" height="9.7216" rx="3.87287" transform="rotate(-9.65041 8 14.3252)" fill="#FF5277"/>
<mask id="mask1_4092_79837" style="mask-type:alpha" maskUnits="userSpaceOnUse" x="8" y="9" width="33" height="15">
<rect x="8.00781" y="14.3252" width="32.3502" height="9.72116" rx="3.87287" transform="rotate(-9.65041 8.00781 14.3252)" fill="#FF5277"/>
</mask>
<g mask="url(#mask1_4092_79837)">
<g filter="url(#filter1_f_4092_79837)">
<circle cx="7.4159" cy="-7.90492" r="20.2189" transform="rotate(-9.65041 7.4159 -7.90492)" fill="white"/>
</g>
</g>
<g filter="url(#filter2_d_4092_79837)">
<path fill-rule="evenodd" clip-rule="evenodd" d="M35.1664 14.5106C37.3029 13.2028 38.5457 10.8884 38.1587 8.52581C37.7381 5.95832 35.5504 4.25275 32.8034 4.23303C30.342 4.21537 27.5735 5.48603 24.6369 7.92375C24.4452 7.94016 24.2584 7.96589 24.0782 7.99851L24.0338 8.00656L23.9896 8.01603C23.8694 8.04183 23.7324 8.06176 23.4683 8.09824L23.4668 8.09844C23.4245 8.10428 23.3782 8.11066 23.3315 8.1172C23.0389 8.15812 22.5877 8.22304 22.1204 8.35356C21.9269 8.40762 21.7214 8.47538 21.51 8.56169C17.8 7.52379 14.7291 7.49377 12.4772 8.52626C9.98002 9.67118 8.68459 12.1241 9.35432 14.6381C9.97059 16.9516 12.0535 18.5524 14.5385 18.8686C15.307 18.9664 16.1027 18.9458 16.9161 18.807C15.714 21.9201 15.0291 25.3847 15.8949 29.4196C16.2192 30.9313 17.7076 31.8938 19.2193 31.5695C20.731 31.2451 21.6935 29.7567 21.3691 28.2451C20.513 24.2548 21.8114 21.0997 23.9297 16.9907C24.5364 16.9179 25.2112 16.794 25.8616 16.5938C25.8911 16.5847 25.9209 16.5754 25.951 16.5657C26.7834 17.2224 27.6614 18.3676 28.5487 20.0061C29.4391 21.6503 30.1628 23.4451 30.8252 25.0931L30.8272 25.098C30.9905 25.5043 31.1512 25.904 31.3071 26.282C31.8966 27.7113 33.5332 28.392 34.9625 27.8025C36.3917 27.2129 37.0725 25.5764 36.4829 24.1471C36.3448 23.8121 36.1976 23.4459 36.0372 23.0465L36.0219 23.0085C35.3725 21.392 34.5286 19.2912 33.472 17.34L32.4966 15.5398C33.4815 15.3394 34.3765 14.9941 35.1664 14.5106Z" fill="#F55F7F"/>
<path fill-rule="evenodd" clip-rule="evenodd" d="M35.1664 14.5106C37.3029 13.2028 38.5457 10.8884 38.1587 8.52581C37.7381 5.95832 35.5504 4.25275 32.8034 4.23303C30.342 4.21537 27.5735 5.48603 24.6369 7.92375C24.4452 7.94016 24.2584 7.96589 24.0782 7.99851L24.0338 8.00656L23.9896 8.01603C23.8694 8.04183 23.7324 8.06176 23.4683 8.09824L23.4668 8.09844C23.4245 8.10428 23.3782 8.11066 23.3315 8.1172C23.0389 8.15812 22.5877 8.22304 22.1204 8.35356C21.9269 8.40762 21.7214 8.47538 21.51 8.56169C17.8 7.52379 14.7291 7.49377 12.4772 8.52626C9.98002 9.67118 8.68459 12.1241 9.35432 14.6381C9.97059 16.9516 12.0535 18.5524 14.5385 18.8686C15.307 18.9664 16.1027 18.9458 16.9161 18.807C15.714 21.9201 15.0291 25.3847 15.8949 29.4196C16.2192 30.9313 17.7076 31.8938 19.2193 31.5695C20.731 31.2451 21.6935 29.7567 21.3691 28.2451C20.513 24.2548 21.8114 21.0997 23.9297 16.9907C24.5364 16.9179 25.2112 16.794 25.8616 16.5938C25.8911 16.5847 25.9209 16.5754 25.951 16.5657C26.7834 17.2224 27.6614 18.3676 28.5487 20.0061C29.4391 21.6503 30.1628 23.4451 30.8252 25.0931L30.8272 25.098C30.9905 25.5043 31.1512 25.904 31.3071 26.282C31.8966 27.7113 33.5332 28.392 34.9625 27.8025C36.3917 27.2129 37.0725 25.5764 36.4829 24.1471C36.3448 23.8121 36.1976 23.4459 36.0372 23.0465L36.0219 23.0085C35.3725 21.392 34.5286 19.2912 33.472 17.34L32.4966 15.5398C33.4815 15.3394 34.3765 14.9941 35.1664 14.5106Z" fill="url(#paint0_linear_4092_79837)" fill-opacity="0.5"/>
<path fill-rule="evenodd" clip-rule="evenodd" d="M25.6701 9.63569C25.5693 9.72091 25.4936 9.82483 25.4439 9.93804C25.1011 9.89534 24.744 9.9148 24.3898 9.97892L24.3765 9.98133L24.3633 9.98417C24.1585 10.0281 23.9461 10.0574 23.6973 10.0918L23.6969 10.0918C23.6542 10.0977 23.6104 10.1038 23.5654 10.1101C23.2756 10.1506 22.9394 10.2011 22.6104 10.293C22.2396 10.3966 21.8617 10.5582 21.5262 10.8247C21.4217 10.6956 21.2779 10.5962 21.1061 10.5469C17.5118 9.51641 14.926 9.59429 13.2568 10.3596C11.523 11.1545 10.8167 12.7006 11.2118 14.1838C11.5911 15.6076 12.9246 16.7414 14.7483 16.9735C16.4675 17.1922 18.587 16.6221 20.9043 14.8991C18.6421 19.2298 16.5925 23.5484 17.7748 29.0587C17.8719 29.5112 18.3175 29.7994 18.7701 29.7023C19.2227 29.6052 19.5108 29.1596 19.4137 28.707C18.3256 23.6357 20.2743 19.7112 22.6558 15.168C23.3355 15.1511 24.345 15.0474 25.2468 14.7698C25.5318 14.6821 25.8271 14.5707 26.107 14.4271C27.7098 15.2082 29.0679 16.9663 30.2356 19.1226C31.1878 20.8811 31.951 22.7796 32.6072 24.4121C32.772 24.8218 32.9299 25.2148 33.0825 25.5846C33.259 26.0125 33.7489 26.2163 34.1768 26.0398C34.6048 25.8633 34.8086 25.3734 34.6321 24.9454C34.4898 24.6005 34.3391 24.2254 34.1795 23.8281C33.5221 22.1917 32.7126 20.1767 31.7096 18.3244C30.7287 16.5131 29.5 14.7321 27.9329 13.5835C30.6104 14.1176 32.6782 13.7615 34.1047 12.8883C35.6727 11.9285 36.4237 10.3474 36.1855 8.89336C35.9373 7.37864 34.6589 6.25845 32.7516 6.24476C30.9154 6.23159 28.5252 7.22139 25.6701 9.63569ZM32.7395 7.92097C31.5153 7.91219 29.5747 8.57862 26.9535 10.7475C27.1854 11.035 27.3404 11.3773 27.4295 11.7502C27.4525 11.7542 27.4755 11.7591 27.4985 11.765C30.3031 12.488 32.1568 12.1153 33.2295 11.4586C34.3087 10.7981 34.6427 9.84494 34.5312 9.16434C34.4755 8.82389 34.3098 8.52885 34.0414 8.31337C33.7727 8.09768 33.3544 7.92539 32.7395 7.92097ZM20.4475 13.1503C20.4563 12.805 20.529 12.4628 20.6337 12.1553C17.2116 11.1757 15.0955 11.3606 13.9554 11.8833C13.3966 12.1396 13.0857 12.4683 12.9292 12.7752C12.7728 13.0819 12.7427 13.4189 12.8315 13.7523C13.0091 14.4187 13.7047 15.1509 14.9599 15.3106C16.2075 15.4694 18.051 15.0488 20.3121 13.2389C20.3551 13.2045 20.4005 13.175 20.4475 13.1503ZM23.0614 11.9075C22.6758 12.0152 22.4513 12.168 22.3013 12.4932C22.1385 12.8461 22.096 13.1913 22.1384 13.3794C22.1472 13.4183 22.1573 13.4397 22.1627 13.4492C22.1653 13.4538 22.167 13.4559 22.1674 13.4564C22.1678 13.4568 22.1678 13.4569 22.1678 13.4569L22.1685 13.4573C22.1689 13.4576 22.1696 13.4581 22.1706 13.4587C22.1713 13.4592 22.1722 13.4597 22.1733 13.4603C22.1774 13.4625 22.1855 13.4664 22.1988 13.4708C22.2256 13.4797 22.2768 13.4915 22.3615 13.4933C22.8822 13.504 23.9068 13.4284 24.7536 13.1677C25.1804 13.0363 25.4898 12.8794 25.6713 12.7212C25.8274 12.5852 25.8474 12.493 25.8393 12.3979C25.8017 11.9542 25.6565 11.7826 25.5517 11.7094C25.4326 11.6263 25.1808 11.5414 24.7003 11.6262C24.4337 11.6827 24.1569 11.7207 23.9158 11.7538L23.9151 11.7539C23.8749 11.7595 23.8356 11.7649 23.7975 11.7702C23.5095 11.8105 23.272 11.8486 23.0614 11.9075Z" fill="white"/>
</g>
<defs>
<filter id="filter0_f_4092_79837" x="-27.7557" y="-49.8866" width="133.394" height="133.393" filterUnits="userSpaceOnUse" color-interpolation-filters="sRGB">
<feFlood flood-opacity="0" result="BackgroundImageFix"/>
<feBlend mode="normal" in="SourceGraphic" in2="BackgroundImageFix" result="shape"/>
<feGaussianBlur stdDeviation="23.2372" result="effect1_foregroundBlur_4092_79837"/>
</filter>
<filter id="filter1_f_4092_79837" x="-59.2792" y="-74.6014" width="133.394" height="133.393" filterUnits="userSpaceOnUse" color-interpolation-filters="sRGB">
<feFlood flood-opacity="0" result="BackgroundImageFix"/>
<feBlend mode="normal" in="SourceGraphic" in2="BackgroundImageFix" result="shape"/>
<feGaussianBlur stdDeviation="23.2372" result="effect1_foregroundBlur_4092_79837"/>
</filter>
<filter id="filter2_d_4092_79837" x="0.816794" y="0.648325" width="45.7727" height="44.1262" filterUnits="userSpaceOnUse" color-interpolation-filters="sRGB">
<feFlood flood-opacity="0" result="BackgroundImageFix"/>
<feColorMatrix in="SourceAlpha" type="matrix" values="0 0 0 0 0 0 0 0 0 0 0 0 0 0 0 0 0 0 127 0" result="hardAlpha"/>
<feOffset dy="4.7788"/>
<feGaussianBlur stdDeviation="4.18145"/>
<feComposite in2="hardAlpha" operator="out"/>
<feColorMatrix type="matrix" values="0 0 0 0 0 0 0 0 0 0 0 0 0 0 0 0 0 0 0.14 0"/>
<feBlend mode="normal" in2="BackgroundImageFix" result="effect1_dropShadow_4092_79837"/>
<feBlend mode="normal" in="SourceGraphic" in2="effect1_dropShadow_4092_79837" result="shape"/>
</filter>
<linearGradient id="paint0_linear_4092_79837" x1="23.4153" y1="4.62732" x2="26.4166" y2="19.8301" gradientUnits="userSpaceOnUse">
<stop stop-color="white" stop-opacity="0"/>
<stop offset="1" stop-color="white"/>
</linearGradient>
</defs>
</svg>
