<svg width="24" height="24" viewBox="0 0 24 24" fill="none" xmlns="http://www.w3.org/2000/svg">
<path fill-rule="evenodd" clip-rule="evenodd" d="M10 3C10 2.44772 9.55228 2 9 2C8.44772 2 8 2.44772 8 3V4H7C4.79086 4 3 5.79086 3 8V10V17C3 19.2091 4.79086 21 7 21H17C19.2091 21 21 19.2091 21 17V10V8C21 5.79086 19.2091 4 17 4H16V3C16 2.44772 15.5523 2 15 2C14.4477 2 14 2.44772 14 3V4H10V3ZM8 6V6.5C8 7.05228 8.44772 7.5 9 7.5C9.55228 7.5 10 7.05228 10 6.5V6H14V6.5C14 7.05228 14.4477 7.5 15 7.5C15.5523 7.5 16 7.05228 16 6.5V6H17C18.1046 6 19 6.89543 19 8V9H5V8C5 6.89543 5.89543 6 7 6H8ZM5 11H19V17C19 18.1046 18.1046 19 17 19H7C5.89543 19 5 18.1046 5 17V11Z" fill="#3C3C3C" fill-opacity="0.9"/>
</svg>
