<svg width="20" height="21" viewBox="0 0 20 21" fill="none" xmlns="http://www.w3.org/2000/svg">
<mask id="mask0_4092_79886" style="mask-type:alpha" maskUnits="userSpaceOnUse" x="0" y="0" width="20" height="21">
<rect y="0.5" width="20" height="20" fill="#D9D9D9"/>
</mask>
<g mask="url(#mask0_4092_79886)">
<path d="M5.83594 18C5.3776 18 4.98524 17.8368 4.65885 17.5104C4.33247 17.184 4.16927 16.7917 4.16927 16.3333V5.5H3.33594V3.83333H7.5026V3H12.5026V3.83333H16.6693V5.5H15.8359V16.3333C15.8359 16.7917 15.6727 17.184 15.3464 17.5104C15.02 17.8368 14.6276 18 14.1693 18H5.83594ZM14.1693 5.5H5.83594V16.3333H14.1693V5.5ZM7.5026 14.6667H9.16927V7.16667H7.5026V14.6667ZM10.8359 14.6667H12.5026V7.16667H10.8359V14.6667Z" fill="#8F8F8F"/>
</g>
</svg>
