<svg width="20" height="20" viewBox="0 0 20 20"  xmlns="http://www.w3.org/2000/svg">
<path d="M7.08333 2.5C6.39298 2.5 5.83333 3.05964 5.83333 3.75V5H3.5C2.94771 5 2.5 5.44772 2.5 6C2.5 6.55228 2.94772 7 3.5 7H5.83333V7.91667C5.83333 8.60702 6.39298 9.16667 7.08333 9.16667C7.77369 9.16667 8.33333 8.60702 8.33333 7.91667V3.75C8.33333 3.05964 7.77369 2.5 7.08333 2.5ZM10 6C10 6.55228 10.4477 7 11 7H16.5C17.0523 7 17.5 6.55228 17.5 6C17.5 5.44772 17.0523 5 16.5 5H11C10.4477 5 10 5.44772 10 6ZM12.9167 10.8333C13.607 10.8333 14.1667 11.393 14.1667 12.0833V13H16.5C17.0523 13 17.5 13.4477 17.5 14C17.5 14.5523 17.0523 15 16.5 15H14.1667V16.25C14.1667 16.9404 13.607 17.5 12.9167 17.5C12.2263 17.5 11.6667 16.9404 11.6667 16.25V12.0833C11.6667 11.393 12.2263 10.8333 12.9167 10.8333ZM10 14C10 14.5523 9.55228 15 9 15H3.5C2.94772 15 2.5 14.5523 2.5 14C2.5 13.4477 2.94772 13 3.5 13H9C9.55228 13 10 13.4477 10 14Z" />
</svg>
