<svg width="24" height="24" viewBox="0 0 24 24" fill="none" xmlns="http://www.w3.org/2000/svg">
<path fill-rule="evenodd" clip-rule="evenodd" d="M12.2145 3.86633C12.0836 3.79195 11.9206 3.79195 11.7897 3.86633C11.6579 3.94072 11.578 4.07816 11.5805 4.22613C11.6077 5.86412 11.2767 7.16069 10.9424 8.04367C10.8025 8.41238 10.6625 8.7083 10.5472 8.92744C10.4262 8.78588 10.2863 8.60593 10.1455 8.38998C9.7544 7.78937 9.36744 6.91679 9.36744 5.81547C9.36744 5.64671 9.26042 5.49474 9.0974 5.43396C8.9344 5.37318 8.74997 5.41556 8.63306 5.54113C7.82788 6.40722 6.88434 7.60056 6.14008 8.92583C5.39909 10.2463 4.83594 11.7308 4.83594 13.1672C4.83594 17.0423 8.04027 20.1903 12.0021 20.1903C12.0433 20.1903 12.0844 20.1903 12.1248 20.1895C12.1544 20.1903 12.1832 20.1903 12.2129 20.1903C12.3899 20.1903 12.5636 20.1783 12.734 20.1543C16.3509 19.7944 19.1682 16.8007 19.1682 13.1672C19.1682 10.715 17.9383 8.68268 16.4761 7.13187C15.0129 5.57951 13.2865 4.47499 12.2145 3.86633ZM12.2289 19.2204C13.7705 19.2204 15.0202 17.9706 15.0202 16.429C15.0202 14.8874 13.9755 13.4871 12.2289 12.5744C10.4797 13.4349 9.4375 14.8874 9.4375 16.429C9.4375 17.9706 10.6872 19.2204 12.2289 19.2204Z" fill="#7F56D9"/>
</svg>
