<svg width="16" height="16" viewBox="0 0 16 16" fill="none" xmlns="http://www.w3.org/2000/svg">
<mask id="mask0_4092_79879" style="mask-type:alpha" maskUnits="userSpaceOnUse" x="0" y="0" width="16" height="16">
<rect width="16" height="16" fill="#D9D9D9"/>
</mask>
<g mask="url(#mask0_4092_79879)">
<path d="M1.9974 13.3337C1.26102 13.3337 0.664062 12.7367 0.664062 12.0003V11.467C0.664062 11.0892 0.761285 10.742 0.955729 10.4253C1.15017 10.1087 1.40851 9.86699 1.73073 9.70033C2.41962 9.35588 3.11962 9.09755 3.83073 8.92533C4.54184 8.7531 5.26406 8.66699 5.9974 8.66699C6.73073 8.66699 7.45295 8.7531 8.16406 8.92533C8.87517 9.09755 9.57517 9.35588 10.2641 9.70033C10.5863 9.86699 10.8446 10.1087 11.0391 10.4253C11.2335 10.742 11.3307 11.0892 11.3307 11.467V12.0003C11.3307 12.7367 10.7338 13.3337 9.9974 13.3337H1.9974ZM13.9974 13.3337C13.261 13.3337 12.6641 12.7367 12.6641 12.0003V11.3337C12.6641 10.8448 12.528 10.3753 12.2557 9.92533C11.9835 9.47533 11.5974 9.08921 11.0974 8.76699C11.6641 8.83366 12.1974 8.94755 12.6974 9.10866C13.1974 9.26977 13.6641 9.46699 14.0974 9.70033C14.4974 9.92255 14.803 10.1698 15.0141 10.442C15.2252 10.7142 15.3307 11.0114 15.3307 11.3337V12.0003C15.3307 12.7367 14.7338 13.3337 13.9974 13.3337ZM5.9974 8.00033C5.26406 8.00033 4.63629 7.73921 4.11406 7.21699C3.59184 6.69477 3.33073 6.06699 3.33073 5.33366C3.33073 4.60033 3.59184 3.97255 4.11406 3.45033C4.63629 2.9281 5.26406 2.66699 5.9974 2.66699C6.73073 2.66699 7.35851 2.9281 7.88073 3.45033C8.40295 3.97255 8.66406 4.60033 8.66406 5.33366C8.66406 6.06699 8.40295 6.69477 7.88073 7.21699C7.35851 7.73921 6.73073 8.00033 5.9974 8.00033ZM12.6641 5.33366C12.6641 6.06699 12.403 6.69477 11.8807 7.21699C11.3585 7.73921 10.7307 8.00033 9.9974 8.00033C9.87517 8.00033 9.71962 7.98644 9.53073 7.95866C9.34184 7.93088 9.18629 7.90033 9.06406 7.86699C9.36406 7.51144 9.59462 7.11699 9.75573 6.68366C9.91684 6.25033 9.9974 5.80033 9.9974 5.33366C9.9974 4.86699 9.91684 4.41699 9.75573 3.98366C9.59462 3.55033 9.36406 3.15588 9.06406 2.80033C9.21962 2.74477 9.37517 2.70866 9.53073 2.69199C9.68629 2.67533 9.84184 2.66699 9.9974 2.66699C10.7307 2.66699 11.3585 2.9281 11.8807 3.45033C12.403 3.97255 12.6641 4.60033 12.6641 5.33366Z" fill="#8F8F8F"/>
</g>
</svg>
