<svg width="214" height="43" viewBox="0 0 214 43" fill="none" xmlns="http://www.w3.org/2000/svg">
<path fill-rule="evenodd" clip-rule="evenodd" d="M145.642 25.2666C145.642 26.4341 146.043 27.0544 147.211 27.0544C147.648 27.0544 148.086 26.9814 148.451 26.8354V32.0164C147.758 32.3083 146.736 32.4907 145.532 32.4907C141.738 32.4907 139.293 30.484 139.293 26.4341V9.72123L145.642 6.69531V25.2666ZM47.0793 18.7129L47.0971 25.4314C47.0971 29.9053 50.9938 32.5031 54.9728 32.5031C57.0594 32.5031 57.9277 32.2366 59.34 31.8032C59.7279 31.6841 60.1567 31.5525 60.6631 31.4104L60.6425 25.0397C57.3438 26.6478 53.7152 26.4829 53.7152 24.3593L53.702 18.7129H60.7044V13.4143H53.6896L53.674 6.71116L47.0559 9.86557L47.0653 13.4143H43.6953V18.7129H47.0793ZM117.284 22.9368C117.284 28.8447 121.455 32.7718 127.363 32.7718C131.116 32.7718 133.722 31.2427 135.53 28.949L131.88 25.9255C130.525 27.2461 129.274 27.8369 127.71 27.8369C125.66 27.8369 124.165 26.7943 123.644 24.7439H136.225C136.259 24.2921 136.259 23.8056 136.259 23.3886C136.259 17.8629 133.271 13.1018 126.772 13.1018C121.211 13.1018 117.284 17.4459 117.284 22.9368ZM126.807 17.9672C128.614 17.9672 129.83 19.2878 130.073 21.3729H123.54C123.887 19.3225 125.069 17.9672 126.807 17.9672ZM63.5078 13.5188V32.32H70.1108V26.4816C70.1108 22.1375 72.057 20.1566 75.4975 20.1566H76.0535V13.206C72.9258 13.067 71.1882 14.7352 70.1108 17.3069V13.5188H63.5078ZM76.5868 26.8638C76.5868 30.6866 79.3322 32.737 82.9118 32.737C85.3792 32.737 87.1516 31.7987 88.4374 30.3739V32.32H94.9709V21.5119C94.9709 18.8707 94.3801 16.9246 92.9553 15.5345C91.4609 14.0401 89.1672 13.2408 85.7962 13.2408C82.5642 13.2408 80.3053 13.8316 78.1854 14.7004L79.5407 19.3573C81.2089 18.697 82.738 18.3147 84.7189 18.3147C87.2558 18.3147 88.4722 19.4268 88.4722 21.3729V21.6857C87.3949 21.3034 85.692 20.9559 83.9543 20.9559C79.5407 20.9559 76.5868 22.9715 76.5868 26.8638ZM88.5417 25.5085C88.5417 27.3851 87.1863 28.6015 85.2749 28.6015C83.9196 28.6015 82.9465 27.8369 82.9465 26.5511C82.9465 25.0915 84.0586 24.1531 85.97 24.1531C86.9431 24.1531 87.8814 24.3617 88.5417 24.6397V25.5085ZM103.495 32.459L95.9888 13.5188H102.939L106.554 24.5007L110.168 13.5188H117.014L109.508 32.459H103.495ZM150.227 22.9357C150.227 29.0174 154.084 32.7359 158.532 32.7359C161.347 32.7359 162.981 31.3806 164.267 29.8167V32.3189H170.87V6.94944H164.267V15.8114C163.016 14.3865 161.347 13.1007 158.498 13.1007C154.049 13.1007 150.227 16.8192 150.227 22.9357ZM164.371 22.8662C164.371 25.4379 162.668 27.2103 160.548 27.2103C158.428 27.2103 156.691 25.4379 156.691 22.9357C156.691 20.364 158.428 18.6263 160.548 18.6263C162.668 18.6263 164.371 20.3987 164.371 22.8662ZM173.503 26.8627C173.503 30.6855 176.249 32.7359 179.828 32.7359C182.296 32.7359 184.068 31.7976 185.354 30.3727V32.3189H191.887V21.5108C191.887 18.8696 191.297 16.9235 189.872 15.5334C188.377 14.039 186.084 13.2397 182.713 13.2397C179.481 13.2397 177.222 13.8305 175.102 14.6993L176.457 19.3561C178.125 18.6958 179.654 18.3136 181.635 18.3136C184.172 18.3136 185.389 19.4257 185.389 21.3718V21.6846C184.311 21.3023 182.608 20.9548 180.871 20.9548C176.457 20.9548 173.503 22.9704 173.503 26.8627ZM185.458 25.5074C185.458 27.384 184.103 28.6004 182.191 28.6004C180.836 28.6004 179.863 27.8358 179.863 26.5499C179.863 25.0903 180.975 24.152 182.886 24.152C183.86 24.152 184.798 24.3605 185.458 24.6386V25.5074ZM199.958 37.9836C197.63 37.9836 195.649 37.3233 193.912 36.3502L195.962 31.7281C197.005 32.3536 198.117 32.7359 198.846 32.7359C199.507 32.7359 199.958 32.5622 200.376 31.9714L193.008 13.5177H199.924L203.677 24.8471L207.222 13.5177H213.999L207.118 31.8671C205.484 36.2459 203.712 37.9836 199.958 37.9836Z" fill="#7F56D9"/>
<path fill-rule="evenodd" clip-rule="evenodd" d="M20.9326 37.2315C21.4317 36.3046 22.3128 35.6573 23.3115 35.3245C30.3455 32.9801 35.4167 26.3427 35.4167 18.5209C35.4167 8.7408 27.4884 0.8125 17.7084 0.8125C7.92831 0.8125 0 8.7408 0 18.5209C0 26.3427 5.07128 32.9801 12.1052 35.3245C13.1039 35.6573 13.985 36.3046 14.4841 37.2315L14.4858 37.2346L16.8878 41.6954C17.2397 42.3489 18.1771 42.3489 18.529 41.6954L20.9326 37.2315ZM17.7086 6.94531L8.89844 11.705V13.5461H26.5187V11.705L17.7086 6.94531ZM26.5187 27.0803V24.2109H8.89844V27.0803H26.5187ZM16.1719 15.082H19.2404V22.7466H16.1719V15.082ZM13.9436 15.082H11.0742V22.7466H13.9436V15.082ZM21.4727 15.082H24.3421V22.7466H21.4727V15.082Z" fill="#FF5277"/>
</svg>
