<svg width="22" height="14" viewBox="0 0 22 14" fill="none" xmlns="http://www.w3.org/2000/svg">
<path d="M13.7595 2.13867H8.23438V11.8598H13.7595V2.13867Z" fill="#FF5A00"/>
<path d="M8.59447 6.99966C8.59447 5.02462 9.54257 3.2717 10.9974 2.1391C9.92671 1.31467 8.57608 0.816406 7.10286 0.816406C3.6129 0.816406 0.789062 3.58186 0.789062 6.99966C0.789062 10.4175 3.6129 13.1829 7.10286 13.1829C8.57608 13.1829 9.92671 12.6847 10.9974 11.8602C9.54052 10.7436 8.59447 8.9747 8.59447 6.99966Z" fill="#EB001B"/>
<path d="M21.2083 6.99966C21.2083 10.4175 18.3845 13.1829 14.8945 13.1829C13.4213 13.1829 12.0707 12.6847 11 11.8602C12.4732 10.7256 13.4029 8.9747 13.4029 6.99966C13.4029 5.02462 12.4548 3.2717 11 2.1391C12.0686 1.31467 13.4193 0.816406 14.8925 0.816406C18.3845 0.816406 21.2083 3.59987 21.2083 6.99966Z" fill="#F79E1B"/>
</svg>
