<svg width="20" height="20" viewBox="0 0 20 20" fill="none" xmlns="http://www.w3.org/2000/svg">
<path d="M9.16915 10.8306L4.10744 10.8365C3.88553 10.8365 3.6727 10.7483 3.51578 10.5914C3.35886 10.4345 3.2707 10.2216 3.2707 9.99972C3.2707 9.7778 3.35886 9.56497 3.51578 9.40805C3.6727 9.25113 3.88553 9.16298 4.10744 9.16298L9.16915 9.16887H10.8309L15.8926 9.16298C16.1145 9.16298 16.3273 9.25113 16.4842 9.40805C16.6411 9.56497 16.7293 9.7778 16.7293 9.99972C16.7293 10.2216 16.6411 10.4345 16.4842 10.5914C16.3273 10.7483 16.1145 10.8365 15.8926 10.8365L10.8309 10.8306H9.16915Z" fill="#222221"/>
</svg>
