<svg width="227" height="176" viewBox="0 0 227 176" fill="none" xmlns="http://www.w3.org/2000/svg">
<circle cx="133.187" cy="87.9998" r="68.6561" fill="#936EE7"/>
<path fill-rule="evenodd" clip-rule="evenodd" d="M200.844 15.3781C210.204 24.5346 210.369 39.5451 201.212 48.905L85.3072 167.386L25.0656 105.806C15.9091 96.4457 16.074 81.4351 25.434 72.2787C34.794 63.1222 49.8045 63.2871 58.961 72.6471L85.3072 99.5788L167.317 15.7465C176.474 6.38655 191.484 6.2216 200.844 15.3781Z" fill="#F55F7F"/>
<path fill-rule="evenodd" clip-rule="evenodd" d="M200.844 15.3781C210.204 24.5346 210.369 39.5451 201.212 48.905L85.3072 167.386L25.0656 105.806C15.9091 96.4457 16.074 81.4351 25.434 72.2787C34.794 63.1222 49.8045 63.2871 58.961 72.6471L85.3072 99.5788L167.317 15.7465C176.474 6.38655 191.484 6.2216 200.844 15.3781Z" fill="url(#paint0_radial_4092_84968)" fill-opacity="0.2"/>
<path fill-rule="evenodd" clip-rule="evenodd" d="M85.3072 167.384L25.0656 105.803C15.9091 96.4435 16.074 81.433 25.434 72.2765C34.794 63.12 49.8045 63.285 58.961 72.6449L85.3072 99.5766V167.384Z" fill="#F55F7F"/>
<path fill-rule="evenodd" clip-rule="evenodd" d="M85.3072 167.384L25.0656 105.803C15.9091 96.4435 16.074 81.433 25.434 72.2765C34.794 63.12 49.8045 63.285 58.961 72.6449L85.3072 99.5766V167.384Z" fill="url(#paint1_radial_4092_84968)" fill-opacity="0.3"/>
<g filter="url(#filter0_d_4092_84968)">
<path fill-rule="evenodd" clip-rule="evenodd" d="M196.704 92.9535C196.39 91.4618 196.004 89.9842 195.528 88.6554L193.714 85.05C193.558 84.8325 193.392 84.6184 193.215 84.4101C192.017 83.0025 190.595 82.441 189.966 82.2267C189.226 81.9744 188.552 81.866 188.092 81.811C187.166 81.7002 186.217 81.707 185.423 81.74C183.782 81.8083 181.754 82.0405 179.607 82.3465C175.259 82.9662 169.699 83.9958 164.191 85.1021C163.199 85.3014 162.2 85.5004 161.196 85.7004C153.914 87.1512 146.359 88.6561 139.014 90.7388L137.445 91.1838L136.486 92.5038C134.74 94.9081 133.779 97.7103 133.27 100.476C132.14 100.134 130.906 100.084 129.678 100.391C129.106 100.534 128.552 100.673 128.014 100.808L128.011 100.809L128.008 100.81C123.065 102.053 119.327 102.993 112.605 104.012C108.915 104.571 106.378 108.015 106.937 111.705C107.496 115.395 110.94 117.933 114.63 117.373C115.315 117.27 115.973 117.166 116.607 117.063C116.573 117.701 116.629 118.355 116.786 119.008C117.1 120.311 117.771 121.434 118.671 122.299C115.135 123.415 113.156 127.178 114.249 130.729C115.346 134.296 119.128 136.298 122.694 135.2C126.623 133.991 128.838 133.181 130.753 132.437C131.126 132.293 131.481 132.153 131.822 132.019L131.824 132.019C133.17 131.49 134.392 131.01 136.305 130.364C137.489 129.964 138.49 129.267 139.253 128.385C139.857 129.138 140.514 129.866 141.228 130.562C142.819 132.113 144.712 132.559 145.421 132.711C146.385 132.917 147.361 132.994 148.199 133.023C149.901 133.082 151.912 132.967 153.98 132.769C158.167 132.368 163.374 131.549 168.498 130.564C173.633 129.576 178.848 128.39 183.066 127.221C185.164 126.639 187.118 126.033 188.732 125.427C189.537 125.125 190.349 124.788 191.094 124.416L193.692 122.684C195.4 121.11 196.255 119.126 196.72 117.743C197.227 116.232 197.538 114.602 197.735 113.042C198.131 109.911 198.16 106.313 197.965 102.893C197.77 99.4547 197.335 95.9458 196.704 92.9535ZM127.57 124.234C126.117 124.797 124.456 125.413 121.74 126.278C121.234 126.439 120.691 126.609 120.107 126.789C119.028 127.121 118.423 128.264 118.755 129.343C119.087 130.421 120.23 131.026 121.308 130.694C121.898 130.513 122.447 130.341 122.96 130.177C125.771 129.282 127.515 128.637 129.048 128.043C129.401 127.905 129.74 127.772 130.075 127.641L130.1 127.631C131.065 127.252 132.003 126.883 133.189 126.457C133.677 126.282 134.206 126.097 134.797 125.897C135.864 125.537 136.438 124.38 136.08 123.312L136.079 123.308C136.027 123.156 135.96 123.013 135.878 122.882C135.389 122.094 134.406 121.717 133.49 122.026L133.425 122.048C133.248 122.108 133.077 122.166 132.911 122.224C132.534 122.353 132.181 122.478 131.846 122.598C130.581 123.052 129.583 123.444 128.605 123.828L128.58 123.838C128.244 123.97 127.911 124.101 127.57 124.234ZM132.772 108.38C133.255 107.89 133.478 107.167 133.299 106.451C133.206 106.079 133.017 105.757 132.765 105.505C132.274 105.013 131.545 104.783 130.821 104.964C130.251 105.107 129.698 105.246 129.158 105.382L129.155 105.382L129.15 105.384C124.587 106.531 120.922 107.453 115.003 108.408C114.459 108.496 113.896 108.584 113.311 108.673C112.196 108.842 111.429 109.883 111.598 110.999C111.767 112.114 112.808 112.881 113.923 112.712C114.514 112.623 115.083 112.534 115.634 112.445C117.118 112.206 118.466 111.968 119.722 111.729C120.472 111.586 121.189 111.443 121.882 111.298C123.346 110.993 124.707 110.683 126.052 110.36C126.226 110.318 126.4 110.276 126.575 110.234C127.545 109.999 128.513 109.757 129.512 109.506L130.145 109.347L130.152 109.345L130.155 109.344C130.592 109.234 131.035 109.122 131.489 109.009L131.812 108.928C132.19 108.833 132.517 108.639 132.772 108.38ZM131.667 113.825C132.297 114.051 132.803 114.581 132.967 115.281C133.198 116.264 132.677 117.247 131.779 117.628C131.689 117.666 131.596 117.698 131.499 117.724C131.481 117.729 131.463 117.733 131.445 117.737C130.977 117.847 130.39 117.977 129.742 118.117C129.292 118.214 128.813 118.316 128.324 118.421L127.8 118.533C127.022 118.699 126.233 118.869 125.491 119.034C124.898 119.165 124.335 119.294 123.834 119.414C122.737 119.678 121.634 119.003 121.37 117.906C121.214 117.258 121.386 116.609 121.778 116.131C122.05 115.799 122.429 115.55 122.878 115.442C123.397 115.317 123.974 115.185 124.576 115.051C125.349 114.88 126.163 114.705 126.945 114.537L127.469 114.425C127.954 114.322 128.421 114.222 128.854 114.129C129.496 113.99 130.064 113.865 130.511 113.76C130.762 113.701 131.013 113.691 131.254 113.724C131.396 113.743 131.534 113.777 131.667 113.825Z" fill="#F55F7F"/>
<path fill-rule="evenodd" clip-rule="evenodd" d="M196.704 92.9535C196.39 91.4618 196.004 89.9842 195.528 88.6554L193.714 85.05C193.558 84.8325 193.392 84.6184 193.215 84.4101C192.017 83.0025 190.595 82.441 189.966 82.2267C189.226 81.9744 188.552 81.866 188.092 81.811C187.166 81.7002 186.217 81.707 185.423 81.74C183.782 81.8083 181.754 82.0405 179.607 82.3465C175.259 82.9662 169.699 83.9958 164.191 85.1021C163.199 85.3014 162.2 85.5004 161.196 85.7004C153.914 87.1512 146.359 88.6561 139.014 90.7388L137.445 91.1838L136.486 92.5038C134.74 94.9081 133.779 97.7103 133.27 100.476C132.14 100.134 130.906 100.084 129.678 100.391C129.106 100.534 128.552 100.673 128.014 100.808L128.011 100.809L128.008 100.81C123.065 102.053 119.327 102.993 112.605 104.012C108.915 104.571 106.378 108.015 106.937 111.705C107.496 115.395 110.94 117.933 114.63 117.373C115.315 117.27 115.973 117.166 116.607 117.063C116.573 117.701 116.629 118.355 116.786 119.008C117.1 120.311 117.771 121.434 118.671 122.299C115.135 123.415 113.156 127.178 114.249 130.729C115.346 134.296 119.128 136.298 122.694 135.2C126.623 133.991 128.838 133.181 130.753 132.437C131.126 132.293 131.481 132.153 131.822 132.019L131.824 132.019C133.17 131.49 134.392 131.01 136.305 130.364C137.489 129.964 138.49 129.267 139.253 128.385C139.857 129.138 140.514 129.866 141.228 130.562C142.819 132.113 144.712 132.559 145.421 132.711C146.385 132.917 147.361 132.994 148.199 133.023C149.901 133.082 151.912 132.967 153.98 132.769C158.167 132.368 163.374 131.549 168.498 130.564C173.633 129.576 178.848 128.39 183.066 127.221C185.164 126.639 187.118 126.033 188.732 125.427C189.537 125.125 190.349 124.788 191.094 124.416L193.692 122.684C195.4 121.11 196.255 119.126 196.72 117.743C197.227 116.232 197.538 114.602 197.735 113.042C198.131 109.911 198.16 106.313 197.965 102.893C197.77 99.4547 197.335 95.9458 196.704 92.9535ZM127.57 124.234C126.117 124.797 124.456 125.413 121.74 126.278C121.234 126.439 120.691 126.609 120.107 126.789C119.028 127.121 118.423 128.264 118.755 129.343C119.087 130.421 120.23 131.026 121.308 130.694C121.898 130.513 122.447 130.341 122.96 130.177C125.771 129.282 127.515 128.637 129.048 128.043C129.401 127.905 129.74 127.772 130.075 127.641L130.1 127.631C131.065 127.252 132.003 126.883 133.189 126.457C133.677 126.282 134.206 126.097 134.797 125.897C135.864 125.537 136.438 124.38 136.08 123.312L136.079 123.308C136.027 123.156 135.96 123.013 135.878 122.882C135.389 122.094 134.406 121.717 133.49 122.026L133.425 122.048C133.248 122.108 133.077 122.166 132.911 122.224C132.534 122.353 132.181 122.478 131.846 122.598C130.581 123.052 129.583 123.444 128.605 123.828L128.58 123.838C128.244 123.97 127.911 124.101 127.57 124.234ZM132.772 108.38C133.255 107.89 133.478 107.167 133.299 106.451C133.206 106.079 133.017 105.757 132.765 105.505C132.274 105.013 131.545 104.783 130.821 104.964C130.251 105.107 129.698 105.246 129.158 105.382L129.155 105.382L129.15 105.384C124.587 106.531 120.922 107.453 115.003 108.408C114.459 108.496 113.896 108.584 113.311 108.673C112.196 108.842 111.429 109.883 111.598 110.999C111.767 112.114 112.808 112.881 113.923 112.712C114.514 112.623 115.083 112.534 115.634 112.445C117.118 112.206 118.466 111.968 119.722 111.729C120.472 111.586 121.189 111.443 121.882 111.298C123.346 110.993 124.707 110.683 126.052 110.36C126.226 110.318 126.4 110.276 126.575 110.234C127.545 109.999 128.513 109.757 129.512 109.506L130.145 109.347L130.152 109.345L130.155 109.344C130.592 109.234 131.035 109.122 131.489 109.009L131.812 108.928C132.19 108.833 132.517 108.639 132.772 108.38ZM131.667 113.825C132.297 114.051 132.803 114.581 132.967 115.281C133.198 116.264 132.677 117.247 131.779 117.628C131.689 117.666 131.596 117.698 131.499 117.724C131.481 117.729 131.463 117.733 131.445 117.737C130.977 117.847 130.39 117.977 129.742 118.117C129.292 118.214 128.813 118.316 128.324 118.421L127.8 118.533C127.022 118.699 126.233 118.869 125.491 119.034C124.898 119.165 124.335 119.294 123.834 119.414C122.737 119.678 121.634 119.003 121.37 117.906C121.214 117.258 121.386 116.609 121.778 116.131C122.05 115.799 122.429 115.55 122.878 115.442C123.397 115.317 123.974 115.185 124.576 115.051C125.349 114.88 126.163 114.705 126.945 114.537L127.469 114.425C127.954 114.322 128.421 114.222 128.854 114.129C129.496 113.99 130.064 113.865 130.511 113.76C130.762 113.701 131.013 113.691 131.254 113.724C131.396 113.743 131.534 113.777 131.667 113.825Z" fill="url(#paint2_linear_4092_84968)" fill-opacity="0.5"/>
</g>
<path fill-rule="evenodd" clip-rule="evenodd" d="M189.628 87.4692C189.226 86.9972 188.73 86.7891 188.449 86.6934C188.134 86.586 187.814 86.5296 187.536 86.4963C186.976 86.4293 186.316 86.4258 185.622 86.4547C184.218 86.513 182.374 86.7189 180.276 87.018C176.062 87.6187 170.606 88.6274 165.124 89.7285C156.841 91.392 148.439 92.9721 140.304 95.2787C137.501 99.1378 137.313 104.853 137.535 109.422C137.825 115.365 139.568 122.362 144.522 127.19C145.123 127.776 145.908 127.998 146.413 128.106C146.997 128.231 147.667 128.292 148.366 128.316C149.77 128.364 151.549 128.27 153.534 128.08C157.52 127.699 162.569 126.908 167.611 125.938C172.657 124.968 177.744 123.81 181.81 122.682C183.84 122.12 185.647 121.556 187.078 121.018C187.794 120.75 188.443 120.477 188.992 120.203C189.512 119.944 190.067 119.622 190.501 119.223C191.357 118.433 191.893 117.322 192.255 116.246C192.629 115.131 192.888 113.832 193.062 112.455C193.41 109.698 193.447 106.405 193.263 103.165C193.078 99.919 192.668 96.6503 192.095 93.9298C191.809 92.5709 191.475 91.3143 191.093 90.2499C190.728 89.2293 190.259 88.2111 189.628 87.4692ZM142.398 100.345C142.274 100.818 142.152 101.367 142.041 101.992C141.683 104.001 141.485 106.526 141.616 109.223C141.878 114.6 143.428 120.294 147.204 124.096C147.223 124.101 147.244 124.105 147.268 124.111C147.524 124.165 147.929 124.213 148.506 124.233C149.653 124.272 151.232 124.196 153.145 124.013C156.956 123.648 161.869 122.882 166.84 121.926C171.807 120.971 176.784 119.836 180.719 118.745C182.69 118.199 184.368 117.672 185.642 117.194C186.279 116.954 186.788 116.737 187.168 116.547C187.357 116.453 187.499 116.373 187.601 116.309C187.696 116.249 187.733 116.217 187.733 116.217L187.731 116.219C187.85 116.11 188.109 115.757 188.382 114.945C188.641 114.173 188.854 113.161 189.008 111.943C189.316 109.51 189.359 106.482 189.183 103.397C189.009 100.318 188.621 97.257 188.097 94.7721C187.968 94.16 187.833 93.5911 187.693 93.0715C185.426 95.8627 181.956 99.7295 178.53 103.165C176.165 105.537 173.751 107.776 171.698 109.356C170.679 110.14 169.677 110.818 168.768 111.263C168.314 111.485 167.813 111.683 167.295 111.787C166.792 111.887 166.101 111.932 165.398 111.643C162.995 110.654 155.182 106.748 144.776 101.544C143.991 101.152 143.142 100.813 142.398 100.345ZM184.411 90.6325C183.409 90.7233 182.212 90.869 180.852 91.0629C176.754 91.647 171.388 92.6376 165.928 93.7342C158.769 95.172 151.537 96.7741 146.895 97.8511C146.809 97.871 146.799 97.988 146.878 98.0274C156.799 102.988 164.102 106.635 166.645 107.735C166.725 107.705 166.834 107.66 166.975 107.592C167.524 107.323 168.275 106.835 169.206 106.118C171.051 104.698 173.32 102.605 175.637 100.281C178.989 96.9183 182.294 93.2242 184.411 90.6325Z" fill="white"/>
<path fill-rule="evenodd" clip-rule="evenodd" d="M133.303 106.455C133.576 107.549 132.911 108.659 131.816 108.932C131.249 109.074 130.697 109.213 130.156 109.349C125.15 110.608 121.074 111.634 113.927 112.717C112.812 112.886 111.77 112.119 111.601 111.003C111.432 109.888 112.2 108.846 113.315 108.677C120.264 107.624 124.176 106.64 129.162 105.386C129.702 105.25 130.255 105.111 130.825 104.969C131.92 104.695 133.029 105.36 133.303 106.455Z" fill="white"/>
<path fill-rule="evenodd" clip-rule="evenodd" d="M132.971 115.286C133.229 116.384 132.548 117.484 131.449 117.742C130.656 117.928 129.521 118.17 128.326 118.426C128.153 118.462 127.979 118.5 127.804 118.537C126.404 118.837 124.965 119.148 123.837 119.419C122.74 119.682 121.637 119.007 121.374 117.91C121.11 116.813 121.785 115.71 122.882 115.446C124.068 115.161 125.557 114.84 126.949 114.542C127.126 114.504 127.301 114.467 127.474 114.43C128.678 114.172 129.766 113.94 130.515 113.764C131.614 113.506 132.713 114.188 132.971 115.286Z" fill="white"/>
<path fill-rule="evenodd" clip-rule="evenodd" d="M136.083 123.313C136.444 124.382 135.87 125.541 134.801 125.902C132.774 126.586 131.465 127.1 130.103 127.635C129.76 127.77 129.414 127.906 129.052 128.047C127.239 128.75 125.13 129.524 121.312 130.699C120.234 131.03 119.09 130.425 118.759 129.347C118.427 128.269 119.032 127.125 120.11 126.794C123.833 125.648 125.85 124.907 127.574 124.238C127.915 124.106 128.248 123.974 128.584 123.843C129.956 123.303 131.365 122.749 133.494 122.031C134.563 121.67 135.722 122.244 136.083 123.313Z" fill="white"/>
<defs>
<filter id="filter0_d_4092_84968" x="85.5907" y="63.1686" width="133.764" height="96.3193" filterUnits="userSpaceOnUse" color-interpolation-filters="sRGB">
<feFlood flood-opacity="0" result="BackgroundImageFix"/>
<feColorMatrix in="SourceAlpha" type="matrix" values="0 0 0 0 0 0 0 0 0 0 0 0 0 0 0 0 0 0 127 0" result="hardAlpha"/>
<feOffset dy="2.71857"/>
<feGaussianBlur stdDeviation="10.6343"/>
<feComposite in2="hardAlpha" operator="out"/>
<feColorMatrix type="matrix" values="0 0 0 0 0 0 0 0 0 0 0 0 0 0 0 0 0 0 0.3 0"/>
<feBlend mode="normal" in2="BackgroundImageFix" result="effect1_dropShadow_4092_84968"/>
<feBlend mode="normal" in="SourceGraphic" in2="effect1_dropShadow_4092_84968" result="shape"/>
</filter>
<radialGradient id="paint0_radial_4092_84968" cx="0" cy="0" r="1" gradientUnits="userSpaceOnUse" gradientTransform="translate(209.554 22.8423) rotate(161.427) scale(357.519 91.6727)">
<stop stop-color="white"/>
<stop offset="1" stop-color="white" stop-opacity="0"/>
</radialGradient>
<radialGradient id="paint1_radial_4092_84968" cx="0" cy="0" r="1" gradientUnits="userSpaceOnUse" gradientTransform="translate(86.2693 131.9) rotate(172.504) scale(121.159 55.7562)">
<stop stop-color="white"/>
<stop offset="1" stop-color="white" stop-opacity="0"/>
</radialGradient>
<linearGradient id="paint2_linear_4092_84968" x1="152.471" y1="81.7188" x2="180.784" y2="138.533" gradientUnits="userSpaceOnUse">
<stop stop-color="white" stop-opacity="0"/>
<stop offset="1" stop-color="white"/>
</linearGradient>
</defs>
</svg>
