<svg width="38" height="14" viewBox="0 0 38 14" fill="none" xmlns="http://www.w3.org/2000/svg">
<path d="M19.2105 8.30307V11.0815H17.6108V2.24101H20.5577C23.3361 2.24101 24.5149 3.25136 24.5149 5.18785C24.5149 7.20854 23.1677 8.30307 20.5577 8.30307H19.2105ZM19.2105 3.67233V6.87176H20.7261C22.1574 6.87176 22.9151 6.36658 22.9151 5.18785C22.9151 4.09331 22.2416 3.67233 20.7261 3.67233H19.2105Z" fill="url(#paint0_linear_4092_83495)"/>
<path d="M19.2105 8.30307V11.0815H17.6108V2.24101H20.5577C23.3361 2.24101 24.5149 3.25136 24.5149 5.18785C24.5149 7.20854 23.1677 8.30307 20.5577 8.30307H19.2105ZM19.2105 3.67233V6.87176H20.7261C22.1574 6.87176 22.9151 6.36658 22.9151 5.18785C22.9151 4.09331 22.2416 3.67233 20.7261 3.67233H19.2105Z" fill="black" fill-opacity="0.08"/>
<path d="M25.357 5.18851C25.7779 4.85173 26.5357 4.59914 27.6302 4.59914C29.4825 4.59914 30.4087 5.18851 30.4087 6.87241V10.998H29.0615V9.90344C28.7247 10.6612 27.9669 11.1664 26.9566 11.1664C25.6937 11.1664 24.936 10.4086 24.936 9.22988C24.936 7.79856 25.9463 7.37759 27.546 7.37759H28.9774V7.125C28.9774 6.19885 28.5564 5.94627 27.7144 5.94627C26.5357 5.94627 25.8621 6.36724 25.4411 7.0408L25.357 5.18851ZM28.8932 8.8089V8.30373H27.6302C26.7883 8.30373 26.3673 8.47213 26.3673 9.06149C26.3673 9.56666 26.704 9.81925 27.3776 9.81925C28.3879 9.81925 28.809 9.22988 28.8932 8.8089Z" fill="url(#paint1_linear_4092_83495)"/>
<path d="M25.357 5.18851C25.7779 4.85173 26.5357 4.59914 27.6302 4.59914C29.4825 4.59914 30.4087 5.18851 30.4087 6.87241V10.998H29.0615V9.90344C28.7247 10.6612 27.9669 11.1664 26.9566 11.1664C25.6937 11.1664 24.936 10.4086 24.936 9.22988C24.936 7.79856 25.9463 7.37759 27.546 7.37759H28.9774V7.125C28.9774 6.19885 28.5564 5.94627 27.7144 5.94627C26.5357 5.94627 25.8621 6.36724 25.4411 7.0408L25.357 5.18851ZM28.8932 8.8089V8.30373H27.6302C26.7883 8.30373 26.3673 8.47213 26.3673 9.06149C26.3673 9.56666 26.704 9.81925 27.3776 9.81925C28.3879 9.81925 28.809 9.22988 28.8932 8.8089Z" fill="black" fill-opacity="0.08"/>
<path d="M31.0821 4.68301H32.6818L34.3657 8.97697L35.797 4.68301H37.3125L34.7867 11.587C34.1973 13.1025 33.6921 13.4393 32.8502 13.4393C32.4292 13.4393 32.0082 13.3551 31.8398 13.1867V11.8396C32.0082 12.008 32.345 12.1764 32.5976 12.1764C33.0186 12.1764 33.3554 11.8396 33.6079 10.9977L31.0821 4.68301Z" fill="url(#paint2_linear_4092_83495)"/>
<path d="M31.0821 4.68301H32.6818L34.3657 8.97697L35.797 4.68301H37.3125L34.7867 11.587C34.1973 13.1025 33.6921 13.4393 32.8502 13.4393C32.4292 13.4393 32.0082 13.3551 31.8398 13.1867V11.8396C32.0082 12.008 32.345 12.1764 32.5976 12.1764C33.0186 12.1764 33.3554 11.8396 33.6079 10.9977L31.0821 4.68301Z" fill="black" fill-opacity="0.08"/>
<path d="M4.72912 5.18851V7.125L7.25498 8.72471L13.4012 4.26236C13.1487 3.75719 12.8961 3.33621 12.5593 2.91523L7.25498 6.78822L4.72912 5.18851Z" fill="url(#paint3_linear_4092_83495)"/>
<path d="M4.72912 5.18851V7.125L7.25498 8.72471L13.4012 4.26236C13.1487 3.75719 12.8961 3.33621 12.5593 2.91523L7.25498 6.78822L4.72912 5.18851Z" fill="black" fill-opacity="0.08"/>
<path d="M12.4748 6.78773V6.95612C12.4748 8.13485 12.0539 9.22939 11.3803 10.1555C10.7067 11.0817 9.6964 11.6711 8.51766 12.0078C7.42312 12.2604 6.24439 12.1762 5.14985 11.6711C4.05531 11.1659 3.21336 10.4081 2.70819 9.39778C2.20302 8.38744 1.95043 7.2087 2.20302 6.02997C2.37141 4.85123 2.96077 3.84089 3.88692 3.08313C4.72887 2.32537 5.82341 1.8202 7.00215 1.8202C8.18088 1.73601 9.27542 2.07279 10.2858 2.74635L11.6329 1.8202C10.4542 0.894054 8.93864 0.304688 7.42312 0.304688C5.90761 0.304688 4.39209 0.80986 3.21336 1.73601C2.03463 2.66216 1.19267 4.00928 0.85589 5.5248C0.519109 7.04031 0.6875 8.55583 1.36106 9.90295C2.03463 11.2501 3.12916 12.4288 4.47629 13.0182C5.82341 13.6917 7.42312 13.8601 8.85444 13.5233C10.37 13.1866 11.6329 12.3446 12.6432 11.1659C13.5694 9.98715 14.0746 8.47163 14.0746 6.95612C14.0746 6.53514 14.0746 6.11416 13.9904 5.77738L12.4748 6.78773Z" fill="url(#paint4_linear_4092_83495)"/>
<path d="M12.4748 6.78773V6.95612C12.4748 8.13485 12.0539 9.22939 11.3803 10.1555C10.7067 11.0817 9.6964 11.6711 8.51766 12.0078C7.42312 12.2604 6.24439 12.1762 5.14985 11.6711C4.05531 11.1659 3.21336 10.4081 2.70819 9.39778C2.20302 8.38744 1.95043 7.2087 2.20302 6.02997C2.37141 4.85123 2.96077 3.84089 3.88692 3.08313C4.72887 2.32537 5.82341 1.8202 7.00215 1.8202C8.18088 1.73601 9.27542 2.07279 10.2858 2.74635L11.6329 1.8202C10.4542 0.894054 8.93864 0.304688 7.42312 0.304688C5.90761 0.304688 4.39209 0.80986 3.21336 1.73601C2.03463 2.66216 1.19267 4.00928 0.85589 5.5248C0.519109 7.04031 0.6875 8.55583 1.36106 9.90295C2.03463 11.2501 3.12916 12.4288 4.47629 13.0182C5.82341 13.6917 7.42312 13.8601 8.85444 13.5233C10.37 13.1866 11.6329 12.3446 12.6432 11.1659C13.5694 9.98715 14.0746 8.47163 14.0746 6.95612C14.0746 6.53514 14.0746 6.11416 13.9904 5.77738L12.4748 6.78773Z" fill="black" fill-opacity="0.08"/>
<defs>
<linearGradient id="paint0_linear_4092_83495" x1="8.43186" y1="15.8003" x2="22.4714" y2="-6.02844" gradientUnits="userSpaceOnUse">
<stop stop-color="#C7E701"/>
<stop offset="0.2424" stop-color="#0ADA01"/>
<stop offset="0.4393" stop-color="#21DE58"/>
<stop offset="0.6317" stop-color="#3EE3A9"/>
<stop offset="0.8075" stop-color="#37DABE"/>
<stop offset="1" stop-color="#15CAE0"/>
</linearGradient>
<linearGradient id="paint1_linear_4092_83495" x1="8.43186" y1="15.8003" x2="22.4714" y2="-6.02844" gradientUnits="userSpaceOnUse">
<stop stop-color="#C7E701"/>
<stop offset="0.2424" stop-color="#0ADA01"/>
<stop offset="0.4393" stop-color="#21DE58"/>
<stop offset="0.6317" stop-color="#3EE3A9"/>
<stop offset="0.8075" stop-color="#37DABE"/>
<stop offset="1" stop-color="#15CAE0"/>
</linearGradient>
<linearGradient id="paint2_linear_4092_83495" x1="8.43186" y1="15.8003" x2="22.4714" y2="-6.02844" gradientUnits="userSpaceOnUse">
<stop stop-color="#C7E701"/>
<stop offset="0.2424" stop-color="#0ADA01"/>
<stop offset="0.4393" stop-color="#21DE58"/>
<stop offset="0.6317" stop-color="#3EE3A9"/>
<stop offset="0.8075" stop-color="#37DABE"/>
<stop offset="1" stop-color="#15CAE0"/>
</linearGradient>
<linearGradient id="paint3_linear_4092_83495" x1="8.43186" y1="15.8003" x2="22.4714" y2="-6.02844" gradientUnits="userSpaceOnUse">
<stop stop-color="#C7E701"/>
<stop offset="0.2424" stop-color="#0ADA01"/>
<stop offset="0.4393" stop-color="#21DE58"/>
<stop offset="0.6317" stop-color="#3EE3A9"/>
<stop offset="0.8075" stop-color="#37DABE"/>
<stop offset="1" stop-color="#15CAE0"/>
</linearGradient>
<linearGradient id="paint4_linear_4092_83495" x1="8.43186" y1="15.8003" x2="22.4714" y2="-6.02844" gradientUnits="userSpaceOnUse">
<stop stop-color="#C7E701"/>
<stop offset="0.2424" stop-color="#0ADA01"/>
<stop offset="0.4393" stop-color="#21DE58"/>
<stop offset="0.6317" stop-color="#3EE3A9"/>
<stop offset="0.8075" stop-color="#37DABE"/>
<stop offset="1" stop-color="#15CAE0"/>
</linearGradient>
</defs>
</svg>
