<svg width="36" height="16" viewBox="0 0 36 16" fill="none" xmlns="http://www.w3.org/2000/svg">
<path d="M35.8626 5.4848V11.7166H33.6677V7.34513H31.5543V11.7166H29.3594V5.48438H35.8626V5.4848Z" fill="black"/>
<path fill-rule="evenodd" clip-rule="evenodd" d="M24.8585 11.8494C26.8157 11.8494 28.269 10.6413 28.269 8.80971C28.269 7.03699 27.1967 5.886 25.4046 5.886C24.5775 5.886 23.8951 6.17911 23.3811 6.68485C23.5038 5.63954 24.3818 4.87641 25.3485 4.87641C25.5716 4.87641 27.2512 4.87284 27.2512 4.87284L28.201 3.04297C28.201 3.04297 26.0923 3.09129 25.112 3.09129C22.8722 3.13059 21.3594 5.18023 21.3594 7.66964C21.3594 10.5698 22.8349 11.8494 24.8585 11.8494ZM24.8703 7.50681C25.597 7.50681 26.1008 7.98754 26.1008 8.8095C26.1008 9.54931 25.6532 10.1588 24.8703 10.1605C24.1215 10.1605 23.6177 9.59574 23.6177 8.82211C23.6177 7.99994 24.1215 7.50681 24.8703 7.50681Z" fill="black"/>
<path d="M19.6186 9.61832C19.6186 9.61832 19.0907 9.91947 18.3022 9.97649C17.3957 10.0031 16.588 9.43649 16.588 8.42976C16.588 7.44774 17.3007 6.88493 18.2794 6.88493C18.8794 6.88493 19.6733 7.29653 19.6733 7.29653C19.6733 7.29653 20.2541 6.24166 20.555 5.71411C20.004 5.30082 19.2702 5.07422 18.4166 5.07422C16.2623 5.07422 14.5938 6.46425 14.5938 8.4173C14.5938 10.3953 16.162 11.753 18.4166 11.712C19.0467 11.6888 19.9161 11.4698 20.446 11.1329L19.6186 9.61832Z" fill="black"/>
<path d="M0.132812 3.625L2.00959 6.97962V9.02585L0.135008 12.3739L0.132812 3.625Z" fill="#5B57A2"/>
<path d="M7.35156 5.75701L9.11017 4.67914L12.7093 4.67578L7.35156 7.95795V5.75701Z" fill="#D90751"/>
<path d="M7.32435 3.60359L7.3343 8.045L5.45312 6.88912V0.25L7.32435 3.60359Z" fill="#FAB718"/>
<path d="M12.692 4.67604L9.09278 4.6794L7.32435 3.60359L5.45312 0.25L12.692 4.67604Z" fill="#ED6F26"/>
<path d="M7.3343 12.3903V10.2355L5.45312 9.10156L5.45416 15.7473L7.3343 12.3903Z" fill="#63B22F"/>
<path d="M9.09312 11.3244L2.00947 6.97962L0.132812 3.625L12.689 11.32L9.09312 11.3244Z" fill="#1487C9"/>
<path d="M5.45312 15.7497L7.33301 12.3928L9.08723 11.3247L12.6831 11.3203L5.45312 15.7497Z" fill="#017F36"/>
<path d="M0.132812 12.3712L5.4709 9.10112L3.67625 8L2.0074 9.02311L0.132812 12.3712Z" fill="#984995"/>
</svg>
