<svg width="16" height="16" viewBox="0 0 16 16" fill="none" xmlns="http://www.w3.org/2000/svg">
<path d="M13.9074 9.33808L13.8995 9.336C13.8995 9.336 13.834 9.31861 13.7382 9.3143C13.7023 9.31015 13.6724 9.30042 13.6322 9.30042H9.93773C9.93773 9.30042 9.8956 9.30105 9.83432 9.31063C9.79793 9.30935 9.76043 9.30967 9.72021 9.31334L6.98942 9.57901L6.44889 8.09371H10.1628C10.5996 8.09371 10.9536 7.73965 10.9536 7.30288C10.9536 6.86612 10.6007 6.51206 10.1639 6.51206C8.62525 6.51206 5.87587 6.51206 5.87587 6.51206L5.69407 6.01969L5.46526 5.39106L5.00764 4.13382C5.00764 4.13382 5.00604 4.12967 5.00429 4.12552L5.00648 1.75259C5.00712 1.05782 4.44389 0.494799 3.74912 0.496462C3.05507 0.498123 2.4923 1.06104 2.49223 1.7551C2.49213 2.59234 2.49224 3.42957 2.49224 4.2668C2.49224 4.2668 2.49351 4.44762 2.56709 4.66067C2.58017 4.7293 2.59789 4.80015 2.6255 4.8758L5.12754 11.7503C5.12754 11.7503 5.19074 11.9199 5.33325 12.0953C5.48502 12.3181 5.74675 12.5117 6.20318 12.5117L8.39989 12.5112V14.3578L5.66111 14.3582C5.29934 14.3582 5.00609 14.6515 5.00609 15.0133C5.00609 15.3751 5.29908 15.6684 5.66089 15.6684C7.92008 15.6686 10.4942 15.6695 12.7534 15.6685C13.1151 15.6684 13.4078 15.3751 13.4078 15.0135C13.4078 14.6516 13.1145 14.3583 12.7526 14.3582C11.8576 14.3581 11.0329 14.3578 10.0938 14.3578V12.5112L12.821 12.5117C12.821 12.5117 12.8266 12.5115 12.8357 12.5112H13.2213C13.4375 12.5216 13.8134 12.4656 13.9428 11.982L14.4157 10.2179C14.4157 10.2179 14.6014 9.524 13.9074 9.33808Z" fill="#8F8F8F"/>
</svg>
