<svg width="14" height="14" viewBox="0 0 14 14" fill="none" xmlns="http://www.w3.org/2000/svg">
<path d="M2.04978 10.2654C1.75443 9.53529 1.5918 8.73732 1.5918 7.90137C1.5918 4.41804 4.41559 1.59424 7.89893 1.59424C8.73306 1.59424 9.52938 1.75617 10.2582 2.0503C9.20317 0.966284 7.72831 0.292969 6.09619 0.292969C2.889 0.292969 0.289062 2.89291 0.289062 6.1001C0.289062 7.73392 0.963781 9.21015 2.04978 10.2654Z" fill="#8F8F8F"/>
<path fill-rule="evenodd" clip-rule="evenodd" d="M13.708 7.90088C13.708 11.1081 11.1081 13.708 7.90088 13.708C4.69369 13.708 2.09375 11.1081 2.09375 7.90088C2.09375 4.69369 4.69369 2.09375 7.90088 2.09375C11.1081 2.09375 13.708 4.69369 13.708 7.90088ZM7.89844 4.55664C8.31265 4.55664 8.64844 4.89243 8.64844 5.30664V7.15234H10.4922C10.9064 7.15234 11.2422 7.48813 11.2422 7.90234C11.2422 8.31656 10.9064 8.65234 10.4922 8.65234H8.64844V10.4965C8.64844 10.9107 8.31265 11.2465 7.89844 11.2465C7.48422 11.2465 7.14844 10.9107 7.14844 10.4965V8.65234H5.30234C4.88812 8.65234 4.55234 8.31656 4.55234 7.90234C4.55234 7.48813 4.88812 7.15234 5.30234 7.15234H7.14844V5.30664C7.14844 4.89243 7.48422 4.55664 7.89844 4.55664Z" fill="#8F8F8F"/>
</svg>
