<svg width="16" height="16" viewBox="0 0 16 16" fill="none" xmlns="http://www.w3.org/2000/svg">
<path fill-rule="evenodd" clip-rule="evenodd" d="M10.7359 7.8841C10.7359 8.22425 10.4602 8.5 10.12 8.5H7.42124V5.17471C7.42124 4.85354 7.6816 4.59318 8.00277 4.59318C8.32393 4.59318 8.58429 4.85354 8.58429 5.17471V7.2682H10.12C10.4602 7.2682 10.7359 7.54395 10.7359 7.8841ZM5.73481 12.8581C6.44234 13.1634 7.19832 13.3161 8.00277 13.3161C8.80721 13.3161 9.5632 13.1634 10.2707 12.8581C10.3502 12.8238 10.4285 12.7882 10.5056 12.7511H7.78125V10.6726H11.5061V9.16797L13.1137 10.2765C13.2025 10.1129 13.2846 9.94365 13.3601 9.76877C13.6654 9.06124 13.818 8.30526 13.818 7.50081C13.818 6.69637 13.6654 5.94038 13.3601 5.23286C13.0548 4.52534 12.6404 3.90989 12.1171 3.38651C11.5937 2.86314 10.9782 2.4488 10.2707 2.1435C9.5632 1.8382 8.80721 1.68555 8.00277 1.68555C7.19832 1.68555 6.44234 1.8382 5.73481 2.1435C5.02729 2.4488 4.41184 2.86314 3.88847 3.38651C3.36509 3.90989 2.95075 4.52534 2.64545 5.23286C2.34015 5.94038 2.1875 6.69637 2.1875 7.50081C2.1875 8.30526 2.34015 9.06124 2.64545 9.76877C2.95075 10.4763 3.36509 11.0917 3.88847 11.6151C4.41184 12.1385 5.02729 12.5528 5.73481 12.8581Z" fill="#8F8F8F"/>
<path fill-rule="evenodd" clip-rule="evenodd" d="M11.0061 8.21484L15.9137 11.599L11.0061 15.2501V13.2502H7.28125V10.1716H11.0061V8.21484ZM12.0061 10.1191V11.1716H8.28125V12.2502H12.0061V13.2597L14.1969 11.6298L12.0061 10.1191Z" fill="#8F8F8F"/>
</svg>
