<svg width="242" height="188" viewBox="0 0 242 188" fill="none" xmlns="http://www.w3.org/2000/svg">
<circle cx="142.275" cy="94.0013" r="73.3372" fill="#936EE7"/>
<path fill-rule="evenodd" clip-rule="evenodd" d="M214.54 16.425C224.538 26.2058 224.714 42.2397 214.933 52.2379L91.1256 178.797L26.7765 113.018C16.9958 103.02 17.172 86.9859 27.1701 77.2052C37.1682 67.4244 53.2022 67.6006 62.983 77.5987L91.1256 106.367L178.727 16.8185C188.508 6.8204 204.542 6.6442 214.54 16.425Z" fill="#F55F7F"/>
<path fill-rule="evenodd" clip-rule="evenodd" d="M214.54 16.425C224.538 26.2058 224.714 42.2397 214.933 52.2379L91.1256 178.797L26.7765 113.018C16.9958 103.02 17.172 86.9859 27.1701 77.2052C37.1682 67.4244 53.2022 67.6006 62.983 77.5987L91.1256 106.367L178.727 16.8185C188.508 6.8204 204.542 6.6442 214.54 16.425Z" fill="url(#paint0_radial_4092_98751)" fill-opacity="0.2"/>
<path fill-rule="evenodd" clip-rule="evenodd" d="M91.1256 178.798L26.7765 113.019C16.9958 103.021 17.172 86.987 27.1701 77.2062C37.1682 67.4254 53.2022 67.6016 62.983 77.5998L91.1256 106.368V178.798Z" fill="#F55F7F"/>
<path fill-rule="evenodd" clip-rule="evenodd" d="M91.1256 178.798L26.7765 113.019C16.9958 103.021 17.172 86.987 27.1701 77.2062C37.1682 67.4254 53.2022 67.6016 62.983 77.5998L91.1256 106.368V178.798Z" fill="url(#paint1_radial_4092_98751)" fill-opacity="0.3"/>
<path d="M156.191 124.09C160.166 122.963 203.967 113.004 205.893 115.269C209.218 119.177 211.173 142.33 207.009 146.169C203.244 149.64 163.79 157.54 160.898 154.722C151.441 145.504 153.772 127.42 156.191 124.09Z" stroke="white" stroke-width="4.36429" stroke-linecap="round"/>
<path d="M158.258 125.764C170.611 131.939 179.845 136.571 182.491 137.66C185.784 139.015 202.51 120.701 205.773 115.845" stroke="white" stroke-width="4.36429" stroke-linecap="round"/>
<path d="M126.365 138.67C134.708 137.406 139.045 136.225 145.271 134.668" stroke="white" stroke-width="4.36429" stroke-linecap="round"/>
<path d="M136.766 145.864C139.236 145.27 143.023 144.513 144.908 144.07" stroke="white" stroke-width="4.36429" stroke-linecap="round"/>
<path d="M133.938 157.95C141.993 155.471 142.751 154.714 148.29 152.844" stroke="white" stroke-width="4.36429" stroke-linecap="round"/>
<defs>
<radialGradient id="paint0_radial_4092_98751" cx="0" cy="0" r="1" gradientUnits="userSpaceOnUse" gradientTransform="translate(223.844 24.3982) rotate(161.427) scale(381.895 97.9231)">
<stop stop-color="white"/>
<stop offset="1" stop-color="white" stop-opacity="0"/>
</radialGradient>
<radialGradient id="paint1_radial_4092_98751" cx="0" cy="0" r="1" gradientUnits="userSpaceOnUse" gradientTransform="translate(92.1532 140.895) rotate(172.504) scale(129.42 59.5578)">
<stop stop-color="white"/>
<stop offset="1" stop-color="white" stop-opacity="0"/>
</radialGradient>
</defs>
</svg>
