<svg width="28" height="10" viewBox="0 0 28 10" fill="none" xmlns="http://www.w3.org/2000/svg">
<path d="M18.0916 0.638672C16.1706 0.638672 14.4538 1.62961 14.4538 3.46003C14.4538 5.5594 17.4985 5.70439 17.4985 6.7592C17.4985 7.20333 16.9871 7.60083 16.1134 7.60083C14.8738 7.60083 13.9473 7.0454 13.9473 7.0454L13.5508 8.8928C13.5508 8.8928 14.6182 9.36199 16.0352 9.36199C18.1355 9.36199 19.7884 8.32255 19.7884 6.4606C19.7884 4.2421 16.7309 4.10143 16.7309 3.12262C16.7309 2.7747 17.1507 2.39363 18.0217 2.39363C19.0046 2.39363 19.8062 2.79761 19.8062 2.79761L20.1944 1.01354C20.1944 1.01354 19.3217 0.638672 18.0913 0.638672H18.0916ZM0.515333 0.77342L0.46875 1.04265C0.46875 1.04265 1.27692 1.18979 2.00492 1.48354C2.94227 1.82014 3.0089 2.01634 3.16679 2.62486L4.88685 9.22293H7.19273L10.745 0.77342H8.44452L6.16194 6.51827L5.23054 1.64847C5.14523 1.09116 4.71244 0.77315 4.18296 0.77315H0.515604L0.515333 0.77342ZM11.6701 0.77342L9.86558 9.22293H12.0593L13.8574 0.77342H11.6701ZM23.9053 0.77342C23.3764 0.77342 23.0961 1.05531 22.8905 1.54768L19.6765 9.22293H21.977L22.422 7.94363H25.2245L25.4951 9.22293H27.525L25.7543 0.77342H23.9053ZM24.2046 3.05632L24.8865 6.22694H23.0598L24.2049 3.05632H24.2046Z" fill="#1434CB"/>
</svg>
