<svg width="60" height="48" viewBox="0 0 60 48" fill="none" xmlns="http://www.w3.org/2000/svg">
<rect x="26.6484" y="1.99219" width="32.6284" height="32.6284" rx="8" fill="#936EE7"/>
<path d="M52.236 23.5672C52.236 34.389 43.4632 43.1617 32.6414 43.1617C21.8197 43.1617 13.0469 34.389 13.0469 23.5672C13.0469 12.7454 21.8197 3.97266 32.6414 3.97266C43.4632 3.97266 52.236 12.7454 52.236 23.5672Z" fill="#F55F7F"/>
<path fill-rule="evenodd" clip-rule="evenodd" d="M37.1397 42.6376C47.6729 40.1553 54.1994 29.604 51.717 19.0708C49.2346 8.53764 38.6834 2.01115 28.1502 4.49353C17.617 6.97591 11.0905 17.5271 13.5729 28.0603C16.0553 38.5935 26.6065 45.12 37.1397 42.6376ZM38.7249 37.3817C38.3361 39.1049 37.7946 40.8014 37.1004 42.4711C35.7337 41.2871 34.4916 40.011 33.3743 38.6427C32.257 37.2745 31.255 35.7744 30.3684 34.1426L39.405 32.0129C39.3404 33.8689 39.1137 35.6585 38.7249 37.3817ZM27.8609 39.3459C28.7275 40.6268 29.6717 41.8372 30.6933 42.977C28.3057 42.7867 26.077 42.1614 24.0073 41.1013C21.9376 40.0411 20.0946 38.6556 18.4782 36.9448L25.4934 35.2915C26.2051 36.7135 26.9942 38.065 27.8609 39.3459ZM48.204 35.3988C46.8255 37.2716 45.1106 38.8262 43.0592 40.0627C43.4643 38.5867 43.7687 37.0821 43.9721 35.549C44.1756 34.0158 44.2782 32.4542 44.28 30.864L51.2952 29.2108C50.6129 31.4633 49.5824 33.526 48.204 35.3988ZM23.4213 30.7596L15.3359 32.6651C14.951 31.9191 14.6179 31.1714 14.3366 30.4218C14.0554 29.6723 13.8167 28.8814 13.6206 28.0491C13.4244 27.2168 13.2848 26.4025 13.2017 25.6063C13.1187 24.8101 13.0828 23.9923 13.0942 23.1529L21.1795 21.2474C21.2475 22.0681 21.3428 22.8719 21.4655 23.6588C21.5881 24.4457 21.7476 25.2552 21.9437 26.0876C22.1399 26.9199 22.3587 27.7155 22.6003 28.4743C22.8419 29.2332 23.1156 29.9949 23.4213 30.7596ZM39.0683 24.5933C39.191 25.3802 39.2863 26.184 39.3542 27.0047L28.1774 29.6387C27.8717 28.8741 27.598 28.1123 27.3564 27.3534C27.1148 26.5946 26.896 25.799 26.6998 24.9667C26.5037 24.1344 26.3442 23.3248 26.2215 22.5379C26.0989 21.751 26.0036 20.9472 25.9356 20.1265L37.1125 17.4925C37.4182 18.2571 37.6918 19.0189 37.9334 19.7777C38.175 20.5366 38.3939 21.3322 38.59 22.1645C38.7862 22.9968 38.9456 23.8064 39.0683 24.5933ZM52.1957 23.9783L44.1103 25.8838C44.0424 25.0631 43.9471 24.2593 43.8244 23.4724C43.7017 22.6855 43.5423 21.8759 43.3461 21.0436C43.15 20.2113 42.9311 19.4157 42.6895 18.6569C42.4479 17.898 42.1743 17.1362 41.8686 16.3716L49.9539 14.4661C50.3389 15.2121 50.672 15.9598 50.9532 16.7093C51.2345 17.4588 51.4732 18.2498 51.6693 19.0821C51.8655 19.9144 52.0051 20.7287 52.0881 21.5249C52.1712 22.3211 52.207 23.1389 52.1957 23.9783ZM46.8117 10.1864L39.7965 11.8397C39.0848 10.4176 38.2957 9.06617 37.429 7.78525C36.5624 6.50434 35.6182 5.29399 34.5965 4.15419C36.9842 4.34453 39.2128 4.96977 41.2825 6.02992C43.3522 7.09006 45.1953 8.47555 46.8117 10.1864ZM31.9156 8.48846C33.0329 9.85672 34.0349 11.3568 34.9215 12.9886L25.8849 15.1182C25.9495 13.2622 26.1762 11.4727 26.565 9.74945C26.9537 8.02624 27.4952 6.3298 28.1894 4.66012C29.5562 5.84409 30.7982 7.1202 31.9156 8.48846ZM21.0099 16.2671L13.9947 17.9204C14.677 15.6678 15.7074 13.6052 17.0859 11.7324C18.4644 9.8596 20.1793 8.30497 22.2307 7.06848C21.8255 8.54453 21.5212 10.0491 21.3177 11.5822C21.1143 13.1153 21.0117 14.677 21.0099 16.2671Z" fill="#F55F7F"/>
<path fill-rule="evenodd" clip-rule="evenodd" d="M37.1397 42.6376C47.6729 40.1553 54.1994 29.604 51.717 19.0708C49.2346 8.53764 38.6834 2.01115 28.1502 4.49353C17.617 6.97591 11.0905 17.5271 13.5729 28.0603C16.0553 38.5935 26.6065 45.12 37.1397 42.6376ZM38.7249 37.3817C38.3361 39.1049 37.7946 40.8014 37.1004 42.4711C35.7337 41.2871 34.4916 40.011 33.3743 38.6427C32.257 37.2745 31.255 35.7744 30.3684 34.1426L39.405 32.0129C39.3404 33.8689 39.1137 35.6585 38.7249 37.3817ZM27.8609 39.3459C28.7275 40.6268 29.6717 41.8372 30.6933 42.977C28.3057 42.7867 26.077 42.1614 24.0073 41.1013C21.9376 40.0411 20.0946 38.6556 18.4782 36.9448L25.4934 35.2915C26.2051 36.7135 26.9942 38.065 27.8609 39.3459ZM48.204 35.3988C46.8255 37.2716 45.1106 38.8262 43.0592 40.0627C43.4643 38.5867 43.7687 37.0821 43.9721 35.549C44.1756 34.0158 44.2782 32.4542 44.28 30.864L51.2952 29.2108C50.6129 31.4633 49.5824 33.526 48.204 35.3988ZM23.4213 30.7596L15.3359 32.6651C14.951 31.9191 14.6179 31.1714 14.3366 30.4218C14.0554 29.6723 13.8167 28.8814 13.6206 28.0491C13.4244 27.2168 13.2848 26.4025 13.2017 25.6063C13.1187 24.8101 13.0828 23.9923 13.0942 23.1529L21.1795 21.2474C21.2475 22.0681 21.3428 22.8719 21.4655 23.6588C21.5881 24.4457 21.7476 25.2552 21.9437 26.0876C22.1399 26.9199 22.3587 27.7155 22.6003 28.4743C22.8419 29.2332 23.1156 29.9949 23.4213 30.7596ZM39.0683 24.5933C39.191 25.3802 39.2863 26.184 39.3542 27.0047L28.1774 29.6387C27.8717 28.8741 27.598 28.1123 27.3564 27.3534C27.1148 26.5946 26.896 25.799 26.6998 24.9667C26.5037 24.1344 26.3442 23.3248 26.2215 22.5379C26.0989 21.751 26.0036 20.9472 25.9356 20.1265L37.1125 17.4925C37.4182 18.2571 37.6918 19.0189 37.9334 19.7777C38.175 20.5366 38.3939 21.3322 38.59 22.1645C38.7862 22.9968 38.9456 23.8064 39.0683 24.5933ZM52.1957 23.9783L44.1103 25.8838C44.0424 25.0631 43.9471 24.2593 43.8244 23.4724C43.7017 22.6855 43.5423 21.8759 43.3461 21.0436C43.15 20.2113 42.9311 19.4157 42.6895 18.6569C42.4479 17.898 42.1743 17.1362 41.8686 16.3716L49.9539 14.4661C50.3389 15.2121 50.672 15.9598 50.9532 16.7093C51.2345 17.4588 51.4732 18.2498 51.6693 19.0821C51.8655 19.9144 52.0051 20.7287 52.0881 21.5249C52.1712 22.3211 52.207 23.1389 52.1957 23.9783ZM46.8117 10.1864L39.7965 11.8397C39.0848 10.4176 38.2957 9.06617 37.429 7.78525C36.5624 6.50434 35.6182 5.29399 34.5965 4.15419C36.9842 4.34453 39.2128 4.96977 41.2825 6.02992C43.3522 7.09006 45.1953 8.47555 46.8117 10.1864ZM31.9156 8.48846C33.0329 9.85672 34.0349 11.3568 34.9215 12.9886L25.8849 15.1182C25.9495 13.2622 26.1762 11.4727 26.565 9.74945C26.9537 8.02624 27.4952 6.3298 28.1894 4.66012C29.5562 5.84409 30.7982 7.1202 31.9156 8.48846ZM21.0099 16.2671L13.9947 17.9204C14.677 15.6678 15.7074 13.6052 17.0859 11.7324C18.4644 9.8596 20.1793 8.30497 22.2307 7.06848C21.8255 8.54453 21.5212 10.0491 21.3177 11.5822C21.1143 13.1153 21.0117 14.677 21.0099 16.2671Z" fill="url(#paint0_linear_4092_83387)" fill-opacity="0.5"/>
<g filter="url(#filter0_d_4092_83387)">
<path fill-rule="evenodd" clip-rule="evenodd" d="M7.75061 6.38964C8.79924 4.87451 10.8776 4.49634 12.3927 5.54497L15.5257 7.71331L17.6954 4.58128C18.7447 3.0666 20.8232 2.68932 22.3378 3.73861C23.8525 4.78789 24.2298 6.8664 23.1805 8.38107L21.0125 11.5107L24.1428 13.6772C25.6579 14.7259 26.0361 16.8042 24.9874 18.3194C23.9388 19.8345 21.8605 20.2127 20.3453 19.164L17.2127 16.9959L15.0432 20.1276C13.9939 21.6423 11.9154 22.0196 10.4007 20.9703C8.88602 19.921 8.50875 17.8425 9.55803 16.3278L11.7259 13.1985L8.59529 11.0317C7.08016 9.98312 6.70198 7.90478 7.75061 6.38964Z" fill="#F55F7F"/>
<path fill-rule="evenodd" clip-rule="evenodd" d="M7.75061 6.38964C8.79924 4.87451 10.8776 4.49634 12.3927 5.54497L15.5257 7.71331L17.6954 4.58128C18.7447 3.0666 20.8232 2.68932 22.3378 3.73861C23.8525 4.78789 24.2298 6.8664 23.1805 8.38107L21.0125 11.5107L24.1428 13.6772C25.6579 14.7259 26.0361 16.8042 24.9874 18.3194C23.9388 19.8345 21.8605 20.2127 20.3453 19.164L17.2127 16.9959L15.0432 20.1276C13.9939 21.6423 11.9154 22.0196 10.4007 20.9703C8.88602 19.921 8.50875 17.8425 9.55803 16.3278L11.7259 13.1985L8.59529 11.0317C7.08016 9.98312 6.70198 7.90478 7.75061 6.38964Z" fill="url(#paint1_linear_4092_83387)" fill-opacity="0.5"/>
</g>
<path d="M12.0087 18.7788L21.0796 5.69054" stroke="white" stroke-width="2" stroke-linecap="round"/>
<path d="M23.0868 16.771L9.99852 7.70008" stroke="white" stroke-width="2" stroke-linecap="round"/>
<defs>
<filter id="filter0_d_4092_83387" x="0.15625" y="0.144531" width="32.4219" height="32.4199" filterUnits="userSpaceOnUse" color-interpolation-filters="sRGB">
<feFlood flood-opacity="0" result="BackgroundImageFix"/>
<feColorMatrix in="SourceAlpha" type="matrix" values="0 0 0 0 0 0 0 0 0 0 0 0 0 0 0 0 0 0 127 0" result="hardAlpha"/>
<feOffset dy="4"/>
<feGaussianBlur stdDeviation="3.5"/>
<feComposite in2="hardAlpha" operator="out"/>
<feColorMatrix type="matrix" values="0 0 0 0 0 0 0 0 0 0 0 0 0 0 0 0 0 0 0.14 0"/>
<feBlend mode="normal" in2="BackgroundImageFix" result="effect1_dropShadow_4092_83387"/>
<feBlend mode="normal" in="SourceGraphic" in2="effect1_dropShadow_4092_83387" result="shape"/>
</filter>
<linearGradient id="paint0_linear_4092_83387" x1="28.1502" y1="4.49353" x2="36.8991" y2="25.3639" gradientUnits="userSpaceOnUse">
<stop stop-color="white" stop-opacity="0"/>
<stop offset="1" stop-color="white"/>
</linearGradient>
<linearGradient id="paint1_linear_4092_83387" x1="13.5798" y1="3.77638" x2="18.3892" y2="13.0174" gradientUnits="userSpaceOnUse">
<stop stop-color="white" stop-opacity="0"/>
<stop offset="1" stop-color="white"/>
</linearGradient>
</defs>
</svg>
