<svg width="28" height="28" viewBox="0 0 28 28"  xmlns="http://www.w3.org/2000/svg">
<g clip-path="url(#clip0_4092_82248)">
<path fill-rule="evenodd" clip-rule="evenodd" d="M28 14C28 21.732 21.732 28 14 28C6.26801 28 0 21.732 0 14C0 6.26801 6.26801 0 14 0C21.732 0 28 6.26801 28 14ZM14.0046 6.29922C14.7778 6.29968 15.4042 6.92686 15.4038 7.70005L15.4 14.0002C15.3995 14.7734 14.7724 15.3999 13.9992 15.3994C13.226 15.3989 12.5995 14.7718 12.6 13.9986L12.6038 7.69838C12.6042 6.92518 13.2314 6.29876 14.0046 6.29922ZM14.0063 22.3992C15.166 22.3992 16.1063 21.459 16.1063 20.2992C16.1063 19.1394 15.166 18.1992 14.0063 18.1992C12.8465 18.1992 11.9062 19.1394 11.9062 20.2992C11.9062 21.459 12.8465 22.3992 14.0063 22.3992Z" />
</g>
<defs>
<clipPath id="clip0_4092_82248">
<rect width="28" height="28" fill="white"/>
</clipPath>
</defs>
</svg>
