<svg width="16" height="17" viewBox="0 0 16 17" fill="none" xmlns="http://www.w3.org/2000/svg">
<path fill-rule="evenodd" clip-rule="evenodd" d="M1.04985 8.07394C5.16502 6.38579 7.90454 5.26406 9.28018 4.71986C13.1955 3.17609 14.0185 2.90954 14.5476 2.89844C14.6652 2.89844 14.9238 2.92065 15.1002 3.05392C15.2413 3.16499 15.2766 3.30937 15.3001 3.42043C15.3236 3.53149 15.3471 3.76472 15.3236 3.94242C15.112 6.05261 14.1949 11.1726 13.7246 13.5271C13.5247 14.5267 13.1367 14.8598 12.7604 14.8932C11.9374 14.9598 11.3142 14.3823 10.5265 13.8936C9.28018 13.1273 8.58648 12.6497 7.37545 11.8945C5.97629 11.0282 6.88163 10.5506 7.68115 9.77319C7.89278 9.57328 11.5024 6.46354 11.5729 6.18588C11.5847 6.15256 11.5847 6.01929 11.5024 5.95265C11.4201 5.88601 11.3025 5.90823 11.2084 5.93044C11.0791 5.95265 9.10382 7.19655 5.25908 9.65102C4.69471 10.0175 4.18914 10.1952 3.73059 10.1841C3.22501 10.173 2.26089 9.91757 1.53192 9.69545C0.650095 9.4289 -0.0553622 9.28452 0.00342583 8.81806C0.0386987 8.57372 0.391427 8.32938 1.04985 8.07394Z" fill="#1A1A1A"/>
</svg>
