<svg width="61" height="398" viewBox="0 0 61 398" fill="none" xmlns="http://www.w3.org/2000/svg">
<path d="M0.445312 -2.29633C0.445312 -18.5986 13.9281 -31.8418 30.5253 -31.8418C47.1225 -31.8418 60.6052 -18.5986 60.6052 -2.29633C60.6052 10.8307 51.8927 21.9441 39.8292 25.8164C36.9118 26.7458 33.2849 37.4333 30.5253 37.4333C27.7656 37.4333 23.9416 26.707 20.906 25.7003C9.03957 21.7893 0.445312 10.7145 0.445312 -2.29633Z" fill="white" fill-opacity="0.07"/>
<path d="M0.445312 87.794C0.445312 71.4917 13.9281 58.2485 30.5253 58.2485C47.1225 58.2485 60.6052 71.4917 60.6052 87.794C60.6052 100.921 51.8927 112.034 39.8292 115.907C36.9118 116.836 33.2849 127.524 30.5253 127.524C27.7656 127.524 23.9416 116.797 20.906 115.791C9.03957 111.88 0.445312 100.805 0.445312 87.794Z" fill="white" fill-opacity="0.07"/>
<path d="M0.445312 177.884C0.445312 161.582 13.9281 148.339 30.5253 148.339C47.1225 148.339 60.6052 161.582 60.6052 177.884C60.6052 191.011 51.8927 202.125 39.8292 205.997C36.9118 206.926 33.2849 217.614 30.5253 217.614C27.7656 217.614 23.9416 206.888 20.906 205.881C9.03957 201.97 0.445312 190.895 0.445312 177.884Z" fill="white" fill-opacity="0.07"/>
<path d="M0.445312 267.975C0.445312 251.672 13.9281 238.429 30.5253 238.429C47.1225 238.429 60.6052 251.672 60.6052 267.975C60.6052 281.102 51.8927 292.215 39.8292 296.087C36.9118 297.017 33.2849 307.704 30.5253 307.704C27.7656 307.704 23.9416 296.978 20.906 295.971C9.03957 292.06 0.445312 280.986 0.445312 267.975Z" fill="white" fill-opacity="0.07"/>
<path d="M0.445312 358.065C0.445312 341.763 13.9281 328.52 30.5253 328.52C47.1225 328.52 60.6052 341.763 60.6052 358.065C60.6052 371.192 51.8927 382.305 39.8292 386.178C36.9118 387.107 33.2849 397.795 30.5253 397.795C27.7656 397.795 23.9416 387.068 20.906 386.062C9.03957 382.151 0.445312 371.076 0.445312 358.065Z" fill="white" fill-opacity="0.07"/>
</svg>
