<svg width="24" height="24" viewBox="0 0 24 24" fill="none" xmlns="http://www.w3.org/2000/svg">
<path d="M17.7102 16.2902C17.8985 16.4785 18.0043 16.7339 18.0043 17.0002C18.0043 17.2665 17.8985 17.5219 17.7102 17.7102C17.5219 17.8985 17.2665 18.0043 17.0002 18.0043C16.7339 18.0043 16.4785 17.8985 16.2902 17.7102L12.0002 13.4102L7.71019 17.7102C7.52188 17.8985 7.26649 18.0043 7.00019 18.0043C6.73388 18.0043 6.47849 17.8985 6.29019 17.7102C6.10188 17.5219 5.99609 17.2665 5.99609 17.0002C5.99609 16.7339 6.10188 16.4785 6.29019 16.2902L10.5902 12.0002L6.29019 7.71019C6.10188 7.52188 5.99609 7.26649 5.99609 7.00019C5.99609 6.73388 6.10188 6.47849 6.29019 6.29019C6.47849 6.10188 6.73388 5.99609 7.00019 5.99609C7.26649 5.99609 7.52188 6.10188 7.71019 6.29019L12.0002 10.5902L16.2902 6.29019C16.4785 6.10188 16.7339 5.99609 17.0002 5.99609C17.2665 5.99609 17.5219 6.10188 17.7102 6.29019C17.8985 6.47849 18.0043 6.73388 18.0043 7.00019C18.0043 7.26649 17.8985 7.52188 17.7102 7.71019L13.4102 12.0002L17.7102 16.2902Z" fill="#B3B3B3"/>
</svg>
