<svg width="28" height="28" viewBox="0 0 28 28" fill="none" xmlns="http://www.w3.org/2000/svg">
<path d="M25.1428 23.5138L20.0983 18.4808C21.3576 16.8794 22.0402 14.9003 22.0358 12.8631C22.0358 11.0491 21.4979 9.27588 20.4901 7.7676C19.4823 6.25932 18.0499 5.08375 16.374 4.38957C14.6981 3.69538 12.8539 3.51375 11.0748 3.86764C9.29566 4.22154 7.66141 5.09506 6.37872 6.37775C5.09603 7.66043 4.22251 9.29468 3.86862 11.0738C3.51473 12.853 3.69636 14.6971 4.39054 16.373C5.08473 18.0489 6.26029 19.4813 7.76857 20.4891C9.27686 21.4969 11.0501 22.0349 12.8641 22.0349C14.9013 22.0392 16.8804 21.3566 18.4818 20.0973L23.5148 25.1418C23.7307 25.3577 24.0235 25.4789 24.3288 25.4789C24.6341 25.4789 24.9269 25.3577 25.1428 25.1418C25.3586 24.9259 25.4799 24.6331 25.4799 24.3278C25.4799 24.0225 25.3586 23.7297 25.1428 23.5138ZM8.0031 17.7815C6.86448 16.668 6.14747 15.1941 5.97438 13.611C5.8013 12.0279 6.18286 10.4338 7.05398 9.1006C7.9251 7.76745 9.2318 6.77785 10.7512 6.30064C12.2705 5.82342 13.9084 5.88817 15.3853 6.48382C16.8622 7.07947 18.0867 8.16913 18.8499 9.56688C19.6131 10.9646 19.8676 12.5839 19.5701 14.1484C19.2726 15.7129 18.4415 17.1257 17.2185 18.1457C15.9956 19.1658 14.4566 19.73 12.8641 19.7419C11.0404 19.7403 9.29188 19.0145 8.0031 17.7241V17.7815Z" fill="#1A1A1A"/>
</svg>
