<svg width="24" height="25" viewBox="0 0 24 25" fill="none" xmlns="http://www.w3.org/2000/svg">
<path d="M23.4501 22.2022L18.0347 16.7991C19.3865 15.08 20.1193 12.9553 20.1147 10.7683C20.1147 8.82095 19.5372 6.9173 18.4553 5.29811C17.3734 3.67892 15.8356 2.41691 14.0365 1.67168C12.2373 0.926446 10.2576 0.73146 8.34763 1.11138C6.43767 1.49129 4.68325 2.42905 3.30624 3.80606C1.92923 5.18307 0.991475 6.93748 0.611559 8.84745C0.231643 10.7574 0.426629 12.7371 1.17186 14.5363C1.91709 16.3354 3.1791 17.8732 4.79829 18.9551C6.41748 20.037 8.32114 20.6145 10.2685 20.6145C12.4555 20.6191 14.5802 19.8863 16.2993 18.5345L21.7024 23.9499C21.9341 24.1816 22.2485 24.3118 22.5762 24.3118C22.904 24.3118 23.2183 24.1816 23.4501 23.9499C23.6818 23.7181 23.812 23.4038 23.812 23.076C23.812 22.7483 23.6818 22.4339 23.4501 22.2022ZM5.05006 16.0483C3.82772 14.853 3.05798 13.2707 2.87217 11.5712C2.68636 9.87165 3.09598 8.16032 4.03116 6.72913C4.96633 5.29795 6.36912 4.23558 8.00019 3.72328C9.63126 3.21097 11.3896 3.28048 12.9751 3.91993C14.5606 4.55938 15.8752 5.72916 16.6945 7.2297C17.5138 8.73024 17.787 10.4686 17.4676 12.1481C17.1483 13.8276 16.256 15.3443 14.9431 16.4394C13.6303 17.5345 11.9781 18.1401 10.2685 18.153C8.31066 18.1512 6.43362 17.3721 5.05006 15.9868V16.0483Z" fill="#7F56D9"/>
</svg>
