<svg width="28" height="28" viewBox="0 0 28 28" fill="none" xmlns="http://www.w3.org/2000/svg">
<path d="M12.1605 23.2394C12.1629 23.6253 12.0507 24.0033 11.838 24.3253C11.6254 24.6474 11.3219 24.8991 10.966 25.0484C10.6102 25.1978 10.218 25.2381 9.83916 25.1643C9.46034 25.0905 9.11198 24.9059 8.83823 24.6338C8.56448 24.3618 8.37767 24.0146 8.30148 23.6362C8.2253 23.2579 8.26317 22.8655 8.4103 22.5087C8.55743 22.1519 8.80719 21.8468 9.12791 21.6321C9.44863 21.4175 9.82587 21.3029 10.2118 21.3029C10.7265 21.3029 11.2204 21.5065 11.5855 21.8693C11.9506 22.2321 12.1573 22.7247 12.1605 23.2394ZM20.1868 21.3029C19.8013 21.3029 19.4246 21.4172 19.1041 21.6313C18.7836 21.8454 18.5339 22.1498 18.3864 22.5058C18.2389 22.8619 18.2003 23.2537 18.2755 23.6317C18.3507 24.0098 18.5363 24.357 18.8088 24.6295C19.0813 24.902 19.4286 25.0876 19.8066 25.1628C20.1846 25.238 20.5764 25.1994 20.9325 25.0519C21.2886 24.9044 21.5929 24.6547 21.8071 24.3342C22.0212 24.0138 22.1355 23.637 22.1355 23.2516C22.1355 22.7347 21.9302 22.2391 21.5647 21.8736C21.1993 21.5082 20.7036 21.3029 20.1868 21.3029ZM24.3156 9.42792L22.3425 17.3324C22.142 18.12 21.6847 18.8183 21.0428 19.3169C20.4009 19.8154 19.6111 20.0856 18.7983 20.0849H11.6003C10.7859 20.085 9.99483 19.8129 9.35271 19.312C8.71059 18.8111 8.25422 18.1101 8.05605 17.3202L5.13299 5.46961H3.19646C2.87344 5.46961 2.56365 5.34129 2.33524 5.11288C2.10683 4.88447 1.97852 4.57468 1.97852 4.25166C1.97852 3.92864 2.10683 3.61886 2.33524 3.39045C2.56365 3.16204 2.87344 3.03372 3.19646 3.03372H6.08298C6.3612 3.02561 6.63381 3.11305 6.85541 3.28147C7.07701 3.44988 7.23424 3.68912 7.30093 3.95936L8.25092 7.90549H22.988H23.0976C23.2106 7.8875 23.3257 7.8875 23.4387 7.90549C23.5966 7.94503 23.745 8.01584 23.8751 8.11373C24.0052 8.21162 24.1144 8.33459 24.1961 8.47539C24.2779 8.61619 24.3306 8.77195 24.3511 8.93347C24.3716 9.09498 24.3595 9.25897 24.3156 9.41574V9.42792ZM21.5752 10.3414H8.85989L10.4554 16.7234C10.5191 16.9815 10.6654 17.2117 10.8721 17.3788C11.0789 17.5459 11.3346 17.6408 11.6003 17.649H18.7618C19.04 17.6571 19.3126 17.5697 19.5342 17.4013C19.7558 17.2329 19.913 16.9936 19.9797 16.7234L21.5752 10.3414Z" fill="#1A1A1A"/>
</svg>
