<svg width="30" height="28" viewBox="0 0 30 28" fill="none" xmlns="http://www.w3.org/2000/svg">
<path d="M12.2065 22.8555C12.2088 23.2252 12.1013 23.5872 11.8976 23.8957C11.6939 24.2042 11.4031 24.4453 11.0623 24.5884C10.7214 24.7314 10.3457 24.7701 9.98283 24.6994C9.61996 24.6287 9.28627 24.4518 9.02404 24.1912C8.76181 23.9306 8.58287 23.5981 8.50989 23.2356C8.43692 22.8732 8.47319 22.4973 8.61413 22.1555C8.75506 21.8138 8.99431 21.5215 9.30152 21.3159C9.60874 21.1103 9.9701 21.0005 10.3398 21.0005C10.8328 21.0005 11.3059 21.1956 11.6556 21.5431C12.0054 21.8906 12.2034 22.3625 12.2065 22.8555ZM19.8948 21.0005C19.5256 21.0005 19.1647 21.11 18.8577 21.3151C18.5508 21.5202 18.3115 21.8117 18.1702 22.1528C18.0289 22.4939 17.992 22.8692 18.064 23.2313C18.136 23.5934 18.3138 23.926 18.5749 24.1871C18.8359 24.4482 19.1685 24.6259 19.5306 24.698C19.8927 24.77 20.268 24.733 20.6091 24.5917C20.9502 24.4505 21.2418 24.2112 21.4469 23.9042C21.652 23.5973 21.7615 23.2364 21.7615 22.8672C21.7615 22.3721 21.5648 21.8973 21.2147 21.5472C20.8647 21.1972 20.3899 21.0005 19.8948 21.0005ZM23.8498 9.6255L21.9598 17.1972C21.7678 17.9516 21.3296 18.6206 20.7148 19.0981C20.0999 19.5756 19.3433 19.8345 18.5648 19.8338H11.6698C10.8897 19.8339 10.1319 19.5733 9.51686 19.0935C8.90178 18.6137 8.46461 17.9421 8.27479 17.1855L5.47479 5.83383H3.61979C3.31037 5.83383 3.01363 5.71091 2.79483 5.49212C2.57604 5.27333 2.45312 4.97658 2.45312 4.66716C2.45312 4.35774 2.57604 4.061 2.79483 3.8422C3.01363 3.62341 3.31037 3.5005 3.61979 3.5005H6.38479C6.6513 3.49273 6.91243 3.57648 7.1247 3.73781C7.33697 3.89914 7.48758 4.12831 7.55146 4.38716L8.46146 8.16716H22.5781H22.6831C22.7913 8.14993 22.9016 8.14993 23.0098 8.16716C23.1611 8.20504 23.3032 8.27287 23.4279 8.36663C23.5525 8.4604 23.657 8.5782 23.7354 8.71307C23.8137 8.84794 23.8641 8.99715 23.8838 9.15186C23.9035 9.30658 23.8919 9.46366 23.8498 9.61383V9.6255ZM21.2248 10.5005H9.04479L10.5731 16.6138C10.6341 16.861 10.7743 17.0815 10.9723 17.2416C11.1703 17.4017 11.4153 17.4926 11.6698 17.5005H18.5298C18.7963 17.5083 19.0574 17.4245 19.2697 17.2632C19.482 17.1019 19.6326 16.8727 19.6965 16.6138L21.2248 10.5005Z" fill="#7F56D9"/>
</svg>
