<svg width="16" height="17" viewBox="0 0 16 17" fill="none" xmlns="http://www.w3.org/2000/svg">
<path d="M0.800781 8.21278C0.800781 4.95443 0.800781 3.32526 1.81302 2.31302C2.82526 1.30078 4.45443 1.30078 7.71278 1.30078H8.28878C11.5471 1.30078 13.1763 1.30078 14.1885 2.31302C15.2008 3.32526 15.2008 4.95443 15.2008 8.21278V8.78878C15.2008 12.0471 15.2008 13.6763 14.1885 14.6885C13.1763 15.7008 11.5471 15.7008 8.28878 15.7008H7.71278C4.45443 15.7008 2.82526 15.7008 1.81302 14.6885C0.800781 13.6763 0.800781 12.0471 0.800781 8.78878V8.21278Z" fill="#1A1A1A"/>
<path d="M8.46245 11.6776C5.18045 11.6776 3.30847 9.42759 3.23047 5.68359H4.87446C4.92846 8.43159 6.14044 9.59558 7.10044 9.83558V5.68359H8.64849V8.05358C9.59649 7.95158 10.5924 6.87159 10.9284 5.68359H12.4764C12.2184 7.14759 11.1384 8.22758 10.3704 8.67158C11.1384 9.03158 12.3685 9.97359 12.8365 11.6776H11.1324C10.7664 10.5376 9.85449 9.65558 8.64849 9.53558V11.6776H8.46245Z" fill="white"/>
</svg>
