<svg width="34" height="20" viewBox="0 0 34 20" fill="none" xmlns="http://www.w3.org/2000/svg">
<path d="M21.4075 2.22314H12.5674V17.7769H21.4075V2.22314Z" fill="#FF5A00"/>
<path d="M13.1557 10.0001C13.1557 6.84008 14.6726 4.0354 17.0003 2.22325C15.2872 0.904153 13.1262 0.106934 10.7691 0.106934C5.18514 0.106934 0.666992 4.53166 0.666992 10.0001C0.666992 15.4686 5.18514 19.8933 10.7691 19.8933C13.1262 19.8933 15.2872 19.0961 17.0003 17.777C14.6693 15.9905 13.1557 13.1602 13.1557 10.0001Z" fill="#EB001B"/>
<path d="M33.3333 10.0001C33.3333 15.4686 28.8152 19.8933 23.2313 19.8933C20.8741 19.8933 18.7131 19.0961 17 17.777C19.3572 15.9617 20.8447 13.1602 20.8447 10.0001C20.8447 6.84008 19.3277 4.0354 17 2.22325C18.7098 0.904153 20.8708 0.106934 23.228 0.106934C28.8152 0.106934 33.3333 4.56048 33.3333 10.0001Z" fill="#F79E1B"/>
</svg>
