<svg width="52" height="20" viewBox="0 0 52 20" fill="none" xmlns="http://www.w3.org/2000/svg">
<path fill-rule="evenodd" clip-rule="evenodd" d="M14.622 2.99951V3.00563C14.6159 3.00563 12.694 2.99951 12.1815 4.83969C11.7117 6.52702 10.3877 11.1855 10.3511 11.3139H9.98504C9.98504 11.3139 8.63057 6.55148 8.15467 4.83357C7.64217 2.9934 5.71418 2.99951 5.71418 2.99951H1.32129V16.9995H5.71418V8.6851H5.89721H6.08025L8.64277 16.9995H11.6934L14.2559 8.69122H14.622V16.9995H19.0149V2.99951H14.622Z" fill="#4DB45E"/>
<path fill-rule="evenodd" clip-rule="evenodd" d="M30.6692 2.99951C30.6692 2.99951 29.3818 3.11567 28.7778 4.46676L25.6662 11.3139H25.3001V2.99951H20.9072V16.9995H25.0561C25.0561 16.9995 26.4044 16.8772 27.0085 15.5323L30.0591 8.6851H30.4251V16.9995H34.818V2.99951H30.6692Z" fill="#4DB45E"/>
<path fill-rule="evenodd" clip-rule="evenodd" d="M36.7695 9.35889V17.0008H41.1624V12.5379H45.9214C47.9958 12.5379 49.753 11.2113 50.4058 9.35889H36.7695Z" fill="#4DB45E"/>
<path fill-rule="evenodd" clip-rule="evenodd" d="M45.9204 2.99951H36.1523C36.6404 5.66501 38.6355 7.80475 41.2164 8.5017C41.8021 8.66065 42.4183 8.74624 43.0528 8.74624H50.5818C50.6489 8.42833 50.6794 8.10432 50.6794 7.76807C50.6794 5.13314 48.55 2.99951 45.9204 2.99951Z" fill="url(#paint0_linear_4180_12029)"/>
<defs>
<linearGradient id="paint0_linear_4180_12029" x1="36.1535" y1="5.87287" x2="50.6794" y2="5.87287" gradientUnits="userSpaceOnUse">
<stop offset="0.3" stop-color="#00B4E6"/>
<stop offset="1" stop-color="#088CCB"/>
</linearGradient>
</defs>
</svg>
