<svg width="150" height="29" viewBox="0 0 150 29" fill="none" xmlns="http://www.w3.org/2000/svg">
<path fill-rule="evenodd" clip-rule="evenodd" d="M102.087 17.1423C102.087 17.9607 102.368 18.3955 103.186 18.3955C103.493 18.3955 103.8 18.3443 104.056 18.242V21.8736C103.57 22.0782 102.854 22.206 102.01 22.206C99.3503 22.206 97.6369 20.7995 97.6369 17.9607V6.24599L102.087 4.125V17.1423ZM33.0009 12.5474L33.0134 17.2567C33.0134 20.3926 35.7447 22.2135 38.5338 22.2135C39.9963 22.2135 40.605 22.0267 41.5949 21.7229C41.8668 21.6395 42.1674 21.5472 42.5223 21.4476L42.5079 16.9821C40.1957 18.1093 37.6522 17.9937 37.6522 16.5052L37.643 12.5474H42.5512V8.83342H37.6343L37.6233 4.13492L32.9845 6.34598L32.9911 8.83342H30.6289V12.5474H33.0009ZM82.2117 15.507C82.2117 19.6482 85.1348 22.4008 89.276 22.4008C91.9068 22.4008 93.7338 21.329 95.0005 19.7212L92.4427 17.602C91.4927 18.5276 90.6157 18.9417 89.5196 18.9417C88.0823 18.9417 87.0349 18.2109 86.6695 16.7737H95.4876C95.512 16.4571 95.512 16.116 95.512 15.8237C95.512 11.9505 93.4171 8.61328 88.8618 8.61328C84.9643 8.61328 82.2117 11.6582 82.2117 15.507ZM88.8862 12.0236C90.1529 12.0236 91.0055 12.9493 91.176 14.4109H86.5964C86.84 12.9736 87.6682 12.0236 88.8862 12.0236ZM44.5176 8.9056V22.0841H49.1459V17.9917C49.1459 14.9468 50.51 13.5583 52.9216 13.5583H53.3114V8.68636C51.119 8.58892 49.901 9.75818 49.1459 11.5608V8.9056H44.5176ZM53.6851 18.2597C53.6851 20.9392 55.6095 22.3764 58.1186 22.3764C59.8481 22.3764 61.0904 21.7187 61.9917 20.72V22.0841H66.5713V14.5083C66.5713 12.657 66.1572 11.2928 65.1585 10.3184C64.111 9.27099 62.5033 8.71072 60.1404 8.71072C57.875 8.71072 56.2916 9.12483 54.8057 9.73382L55.7557 12.998C56.925 12.5352 57.9968 12.2672 59.3853 12.2672C61.1635 12.2672 62.0161 13.0467 62.0161 14.4109V14.6301C61.261 14.3621 60.0673 14.1185 58.8494 14.1185C55.7557 14.1185 53.6851 15.5314 53.6851 18.2597ZM62.0648 17.3096C62.0648 18.6251 61.1148 19.4776 59.775 19.4776C58.825 19.4776 58.1429 18.9417 58.1429 18.0404C58.1429 17.0173 58.9224 16.3596 60.2622 16.3596C60.9443 16.3596 61.602 16.5058 62.0648 16.7007V17.3096ZM72.5465 22.1815L67.2848 8.9056H72.1567L74.6901 16.6032L77.2235 8.9056H82.0223L76.7607 22.1815H72.5465ZM105.301 15.5082C105.301 19.7711 108.005 22.3776 111.123 22.3776C113.096 22.3776 114.241 21.4275 115.142 20.3314V22.0853H119.77V4.30279H115.142V10.5145C114.265 9.51573 113.096 8.61443 111.098 8.61443C107.98 8.61443 105.301 11.2209 105.301 15.5082ZM115.215 15.4595C115.215 17.2621 114.021 18.5044 112.536 18.5044C111.05 18.5044 109.832 17.2621 109.832 15.5082C109.832 13.7056 111.05 12.4876 112.536 12.4876C114.021 12.4876 115.215 13.7299 115.215 15.4595ZM121.616 18.2608C121.616 20.9404 123.541 22.3776 126.05 22.3776C127.779 22.3776 129.022 21.7199 129.923 20.7211V22.0853H134.503V14.5094C134.503 12.6581 134.088 11.294 133.09 10.3196C132.042 9.27214 130.434 8.71187 128.072 8.71187C125.806 8.71187 124.223 9.12598 122.737 9.73497L123.687 12.9991C124.856 12.5363 125.928 12.2684 127.316 12.2684C129.095 12.2684 129.947 13.0479 129.947 14.412V14.6312C129.192 14.3633 127.999 14.1197 126.781 14.1197C123.687 14.1197 121.616 15.5325 121.616 18.2608ZM129.996 17.3108C129.996 18.6262 129.046 19.4788 127.706 19.4788C126.756 19.4788 126.074 18.9429 126.074 18.0416C126.074 17.0185 126.854 16.3608 128.193 16.3608C128.875 16.3608 129.533 16.5069 129.996 16.7018V17.3108ZM140.16 26.0559C138.528 26.0559 137.139 25.593 135.921 24.911L137.358 21.6711C138.089 22.1096 138.869 22.3776 139.38 22.3776C139.843 22.3776 140.16 22.2558 140.452 21.8417L135.288 8.90675H140.135L142.766 16.848L145.251 8.90675H150.001L145.178 21.7686C144.033 24.8379 142.791 26.0559 140.16 26.0559Z" fill="#7F56D9"/>
<path fill-rule="evenodd" clip-rule="evenodd" d="M14.6725 25.5275C15.0223 24.8779 15.6399 24.4241 16.34 24.1908C21.2703 22.5476 24.825 17.8952 24.825 12.4125C24.825 5.55727 19.2677 0 12.4125 0C5.55726 0 0 5.55727 0 12.4125C0 17.8952 3.55466 22.5476 8.48505 24.1908C9.18506 24.4241 9.80267 24.8779 10.1525 25.5275L10.1537 25.5297L11.8373 28.6564C12.084 29.1145 12.741 29.1145 12.9877 28.6564L14.6725 25.5275ZM12.4117 4.29688L6.23633 7.63311V8.92362H18.5871V7.63311L12.4117 4.29688ZM18.5871 18.4098V16.3985H6.23633V18.4098H18.5871ZM11.3359 10H13.4868V15.3724H11.3359V10ZM9.773 10H7.76172V15.3724H9.773V10ZM15.0488 10H17.0601V15.3724H15.0488V10Z" fill="#FF5277"/>
</svg>
