<svg width="48" height="20" viewBox="0 0 48 20" fill="none" xmlns="http://www.w3.org/2000/svg">
<path d="M24.2705 11.6743V15.2391H22.2122V3.89647H26.0038C29.5788 3.89647 31.0954 5.19277 31.0954 7.67735C31.0954 10.2699 29.3621 11.6743 26.0038 11.6743H24.2705ZM24.2705 5.7329V9.83784H26.2205C28.0621 9.83784 29.0371 9.18969 29.0371 7.67735C29.0371 6.27302 28.1705 5.7329 26.2205 5.7329H24.2705Z" fill="url(#paint0_linear_4180_12022)"/>
<path d="M24.2705 11.6743V15.2391H22.2122V3.89647H26.0038C29.5788 3.89647 31.0954 5.19277 31.0954 7.67735C31.0954 10.2699 29.3621 11.6743 26.0038 11.6743H24.2705ZM24.2705 5.7329V9.83784H26.2205C28.0621 9.83784 29.0371 9.18969 29.0371 7.67735C29.0371 6.27302 28.1705 5.7329 26.2205 5.7329H24.2705Z" fill="black" fill-opacity="0.08"/>
<path d="M32.179 7.67819C32.7206 7.24609 33.6956 6.92202 35.1039 6.92202C37.4872 6.92202 38.6788 7.67819 38.6788 9.83869V15.1319H36.9454V13.7276C36.5121 14.6998 35.5371 15.348 34.2371 15.348C32.6122 15.348 31.6373 14.3757 31.6373 12.8634C31.6373 11.027 32.9372 10.4868 34.9955 10.4868H36.8372V10.1628C36.8372 8.97449 36.2956 8.65041 35.2122 8.65041C33.6956 8.65041 32.8288 9.19054 32.2872 10.0547L32.179 7.67819ZM36.7289 12.3233V11.6751H35.1039C34.0206 11.6751 33.4789 11.8912 33.4789 12.6473C33.4789 13.2955 33.9122 13.6196 34.7788 13.6196C36.0788 13.6196 36.6205 12.8634 36.7289 12.3233Z" fill="url(#paint1_linear_4180_12022)"/>
<path d="M32.179 7.67819C32.7206 7.24609 33.6956 6.92202 35.1039 6.92202C37.4872 6.92202 38.6788 7.67819 38.6788 9.83869V15.1319H36.9454V13.7276C36.5121 14.6998 35.5371 15.348 34.2371 15.348C32.6122 15.348 31.6373 14.3757 31.6373 12.8634C31.6373 11.027 32.9372 10.4868 34.9955 10.4868H36.8372V10.1628C36.8372 8.97449 36.2956 8.65041 35.2122 8.65041C33.6956 8.65041 32.8288 9.19054 32.2872 10.0547L32.179 7.67819ZM36.7289 12.3233V11.6751H35.1039C34.0206 11.6751 33.4789 11.8912 33.4789 12.6473C33.4789 13.2955 33.9122 13.6196 34.7788 13.6196C36.0788 13.6196 36.6205 12.8634 36.7289 12.3233Z" fill="black" fill-opacity="0.08"/>
<path d="M39.5453 7.02962H41.6036L43.7702 12.5389L45.6119 7.02962H47.5618L44.3119 15.8877C43.5536 17.8321 42.9036 18.2642 41.8203 18.2642C41.2786 18.2642 40.7369 18.1562 40.5203 17.9401V16.2117C40.7369 16.4278 41.1703 16.6438 41.4953 16.6438C42.0369 16.6438 42.4702 16.2117 42.7952 15.1315L39.5453 7.02962Z" fill="url(#paint2_linear_4180_12022)"/>
<path d="M39.5453 7.02962H41.6036L43.7702 12.5389L45.6119 7.02962H47.5618L44.3119 15.8877C43.5536 17.8321 42.9036 18.2642 41.8203 18.2642C41.2786 18.2642 40.7369 18.1562 40.5203 17.9401V16.2117C40.7369 16.4278 41.1703 16.6438 41.4953 16.6438C42.0369 16.6438 42.4702 16.2117 42.7952 15.1315L39.5453 7.02962Z" fill="black" fill-opacity="0.08"/>
<path d="M5.63773 7.67819V10.1628L8.88768 12.2152L16.7959 6.48992C16.4709 5.84177 16.1459 5.30164 15.7126 4.76152L8.88768 9.73066L5.63773 7.67819Z" fill="url(#paint3_linear_4180_12022)"/>
<path d="M5.63773 7.67819V10.1628L8.88768 12.2152L16.7959 6.48992C16.4709 5.84177 16.1459 5.30164 15.7126 4.76152L8.88768 9.73066L5.63773 7.67819Z" fill="black" fill-opacity="0.08"/>
<path d="M15.6039 9.73003V9.94608C15.6039 11.4584 15.0623 12.8628 14.1956 14.051C13.329 15.2393 12.029 15.9955 10.5123 16.4276C9.10402 16.7517 7.58738 16.6436 6.17907 15.9955C4.77076 15.3473 3.68745 14.3751 3.03746 13.0788C2.38747 11.7825 2.06247 10.2702 2.38747 8.75781C2.60413 7.24546 3.36245 5.94916 4.5541 4.97693C5.63741 4.00471 7.04572 3.35656 8.56237 3.35656C10.079 3.24853 11.4873 3.68063 12.7873 4.54483L14.5206 3.35656C13.004 2.16828 11.054 1.41211 9.10402 1.41211C7.15406 1.41211 5.20409 2.06026 3.68745 3.24853C2.17081 4.43681 1.08749 6.16521 0.654163 8.10966C0.220837 10.0541 0.4375 11.9986 1.30415 13.727C2.1708 15.4554 3.57911 16.9677 5.31242 17.7239C7.04572 18.5881 9.10402 18.8041 10.9457 18.372C12.8956 17.9399 14.5206 16.8597 15.8206 15.3473C17.0122 13.835 17.6622 11.8905 17.6622 9.94608C17.6622 9.40596 17.6622 8.86583 17.5539 8.43373L15.6039 9.73003Z" fill="url(#paint4_linear_4180_12022)"/>
<path d="M15.6039 9.73003V9.94608C15.6039 11.4584 15.0623 12.8628 14.1956 14.051C13.329 15.2393 12.029 15.9955 10.5123 16.4276C9.10402 16.7517 7.58738 16.6436 6.17907 15.9955C4.77076 15.3473 3.68745 14.3751 3.03746 13.0788C2.38747 11.7825 2.06247 10.2702 2.38747 8.75781C2.60413 7.24546 3.36245 5.94916 4.5541 4.97693C5.63741 4.00471 7.04572 3.35656 8.56237 3.35656C10.079 3.24853 11.4873 3.68063 12.7873 4.54483L14.5206 3.35656C13.004 2.16828 11.054 1.41211 9.10402 1.41211C7.15406 1.41211 5.20409 2.06026 3.68745 3.24853C2.17081 4.43681 1.08749 6.16521 0.654163 8.10966C0.220837 10.0541 0.4375 11.9986 1.30415 13.727C2.1708 15.4554 3.57911 16.9677 5.31242 17.7239C7.04572 18.5881 9.10402 18.8041 10.9457 18.372C12.8956 17.9399 14.5206 16.8597 15.8206 15.3473C17.0122 13.835 17.6622 11.8905 17.6622 9.94608C17.6622 9.40596 17.6622 8.86583 17.5539 8.43373L15.6039 9.73003Z" fill="black" fill-opacity="0.08"/>
<defs>
<linearGradient id="paint0_linear_4180_12022" x1="10.4019" y1="21.2934" x2="28.3939" y2="-6.75988" gradientUnits="userSpaceOnUse">
<stop stop-color="#C7E701"/>
<stop offset="0.2424" stop-color="#0ADA01"/>
<stop offset="0.4393" stop-color="#21DE58"/>
<stop offset="0.6317" stop-color="#3EE3A9"/>
<stop offset="0.8075" stop-color="#37DABE"/>
<stop offset="1" stop-color="#15CAE0"/>
</linearGradient>
<linearGradient id="paint1_linear_4180_12022" x1="10.4019" y1="21.2934" x2="28.3939" y2="-6.75988" gradientUnits="userSpaceOnUse">
<stop stop-color="#C7E701"/>
<stop offset="0.2424" stop-color="#0ADA01"/>
<stop offset="0.4393" stop-color="#21DE58"/>
<stop offset="0.6317" stop-color="#3EE3A9"/>
<stop offset="0.8075" stop-color="#37DABE"/>
<stop offset="1" stop-color="#15CAE0"/>
</linearGradient>
<linearGradient id="paint2_linear_4180_12022" x1="10.4019" y1="21.2934" x2="28.3939" y2="-6.75988" gradientUnits="userSpaceOnUse">
<stop stop-color="#C7E701"/>
<stop offset="0.2424" stop-color="#0ADA01"/>
<stop offset="0.4393" stop-color="#21DE58"/>
<stop offset="0.6317" stop-color="#3EE3A9"/>
<stop offset="0.8075" stop-color="#37DABE"/>
<stop offset="1" stop-color="#15CAE0"/>
</linearGradient>
<linearGradient id="paint3_linear_4180_12022" x1="10.4019" y1="21.2934" x2="28.3939" y2="-6.75988" gradientUnits="userSpaceOnUse">
<stop stop-color="#C7E701"/>
<stop offset="0.2424" stop-color="#0ADA01"/>
<stop offset="0.4393" stop-color="#21DE58"/>
<stop offset="0.6317" stop-color="#3EE3A9"/>
<stop offset="0.8075" stop-color="#37DABE"/>
<stop offset="1" stop-color="#15CAE0"/>
</linearGradient>
<linearGradient id="paint4_linear_4180_12022" x1="10.4019" y1="21.2934" x2="28.3939" y2="-6.75988" gradientUnits="userSpaceOnUse">
<stop stop-color="#C7E701"/>
<stop offset="0.2424" stop-color="#0ADA01"/>
<stop offset="0.4393" stop-color="#21DE58"/>
<stop offset="0.6317" stop-color="#3EE3A9"/>
<stop offset="0.8075" stop-color="#37DABE"/>
<stop offset="1" stop-color="#15CAE0"/>
</linearGradient>
</defs>
</svg>
