<svg width="42" height="20" viewBox="0 0 42 20" fill="none" xmlns="http://www.w3.org/2000/svg">
<path d="M41.2556 7.11766V14.1117H38.7923V9.20552H36.4204V14.1117H33.957V7.11719H41.2556V7.11766Z" fill="black"/>
<path fill-rule="evenodd" clip-rule="evenodd" d="M28.9134 14.2634C31.1099 14.2634 32.7411 12.9075 32.7411 10.8519C32.7411 8.8624 31.5376 7.57063 29.5263 7.57063C28.5981 7.57063 27.8322 7.89958 27.2553 8.46718C27.393 7.29402 28.3784 6.43756 29.4633 6.43756C29.7137 6.43756 31.5988 6.43355 31.5988 6.43355L32.6647 4.37988C32.6647 4.37988 30.2981 4.43412 29.1979 4.43412C26.6842 4.47822 24.9863 6.77854 24.9863 9.57242C24.9863 12.8273 26.6423 14.2634 28.9134 14.2634ZM28.9267 9.38967C29.7423 9.38967 30.3077 9.9292 30.3077 10.8517C30.3077 11.682 29.8053 12.3661 28.9267 12.3679C28.0863 12.3679 27.5209 11.7341 27.5209 10.8658C27.5209 9.94311 28.0863 9.38967 28.9267 9.38967Z" fill="black"/>
<path d="M23.0223 11.761C23.0223 11.761 22.4297 12.099 21.5448 12.163C20.5274 12.1928 19.6209 11.5569 19.6209 10.4271C19.6209 9.32495 20.4208 8.6933 21.5192 8.6933C22.1926 8.6933 23.0836 9.15525 23.0836 9.15525C23.0836 9.15525 23.7355 7.97135 24.0732 7.37929C23.4548 6.91545 22.6312 6.66113 21.6732 6.66113C19.2554 6.66113 17.3828 8.22117 17.3828 10.4131C17.3828 12.633 19.1429 14.1567 21.6732 14.1108C22.3804 14.0847 23.3561 13.8389 23.9508 13.4609L23.0223 11.761Z" fill="black"/>
<path d="M0.800781 4.64453L3.09795 8.75056V11.2551L0.803469 15.3531L0.800781 4.64453Z" fill="#5B57A2"/>
<path d="M9.62012 7.25603L11.7726 5.93673L16.1779 5.93262L9.62012 9.94997V7.25603Z" fill="#D90751"/>
<path d="M9.60873 4.6199L9.6209 10.0561L7.31836 8.64137V0.515137L9.60873 4.6199Z" fill="#FAB718"/>
<path d="M16.1787 5.93257L11.7733 5.93668L9.60873 4.6199L7.31836 0.515137L16.1787 5.93257Z" fill="#ED6F26"/>
<path d="M9.6209 15.3745V12.737L7.31836 11.3491L7.31962 19.4834L9.6209 15.3745Z" fill="#63B22F"/>
<path d="M11.7681 14.0686L3.09779 8.75056L0.800781 4.64453L16.1694 14.0632L11.7681 14.0686Z" fill="#1487C9"/>
<path d="M7.31934 19.4845L9.62029 15.3757L11.7674 14.0684L16.1688 14.063L7.31934 19.4845Z" fill="#017F36"/>
<path d="M0.802734 15.3522L7.3365 11.3497L5.13987 10.002L3.09721 11.2542L0.802734 15.3522Z" fill="#984995"/>
</svg>
