<svg width="43" height="20" viewBox="0 0 43 20" fill="none" xmlns="http://www.w3.org/2000/svg">
<g clip-path="url(#clip0_4180_12026)">
<path d="M27.8177 3.02148C24.744 3.02148 21.9971 4.60698 21.9971 7.53565C21.9971 10.8947 26.8687 11.1266 26.8687 12.8143C26.8687 13.5249 26.0505 14.1609 24.6526 14.1609C22.6692 14.1609 21.1868 13.2723 21.1868 13.2723L20.5524 16.2281C20.5524 16.2281 22.2602 16.9788 24.5274 16.9788C27.8879 16.9788 30.5325 15.3157 30.5325 12.3366C30.5325 8.78698 25.6406 8.56189 25.6406 6.9958C25.6406 6.43913 26.3123 5.82942 27.7059 5.82942C29.2784 5.82942 30.5611 6.47578 30.5611 6.47578L31.1821 3.62127C31.1821 3.62127 29.7859 3.02148 27.8172 3.02148H27.8177ZM-0.304373 3.23708L-0.378906 3.66784C-0.378906 3.66784 0.91416 3.90328 2.07896 4.37328C3.57873 4.91184 3.68533 5.22575 3.93796 6.19938L6.69006 16.7563H10.3795L16.0631 3.23708H12.3823L8.73019 12.4288L7.23996 4.63717C7.10346 3.74546 6.41099 3.23665 5.56383 3.23665H-0.30394L-0.304373 3.23708ZM17.5433 3.23708L14.656 16.7563H18.166L21.0429 3.23708H17.5433ZM37.1196 3.23708C36.2733 3.23708 35.8248 3.68811 35.4959 4.4759L30.3535 16.7563H34.0343L34.7462 14.7094H39.2304L39.6633 16.7563H42.9111L40.078 3.23708H37.1196ZM37.5984 6.88972L38.6896 11.9627H35.7667L37.5989 6.88972H37.5984Z" fill="#1434CB"/>
</g>
<defs>
<clipPath id="clip0_4180_12026">
<rect width="43" height="20" fill="white"/>
</clipPath>
</defs>
</svg>
