<svg width="20" height="12" viewBox="0 0 20 12" fill="none" xmlns="http://www.w3.org/2000/svg">
<path d="M10.8485 11.7619C4.35697 11.7619 0.654279 7.34678 0.5 0H3.75172C3.85853 5.39234 6.25578 7.67644 8.15459 8.14739V0H11.2164V4.6506C13.0915 4.45045 15.0615 2.33119 15.7261 0H18.7879C18.5375 1.20902 18.0383 2.35377 17.3216 3.36265C16.6048 4.37152 15.6859 5.22282 14.6224 5.86329C15.8096 6.44851 16.8581 7.27684 17.6989 8.29361C18.5397 9.31038 19.1535 10.4925 19.5 11.7619H16.1296C15.8186 10.6593 15.1865 9.67232 14.3125 8.92462C13.4385 8.17691 12.3615 7.70176 11.2164 7.5587V11.7619H10.8485Z" fill="#292929"/>
</svg>
