<svg width="16" height="17" viewBox="0 0 16 17" fill="none" xmlns="http://www.w3.org/2000/svg">
<mask id="mask0_4146_11880" style="mask-type:luminance" maskUnits="userSpaceOnUse" x="0" y="1" width="16" height="15">
<path d="M15.3652 1.14062H0.636719V15.8691H15.3652V1.14062Z" fill="white"/>
</mask>
<g mask="url(#mask0_4146_11880)">
<path fill-rule="evenodd" clip-rule="evenodd" d="M1.09891 8.32417C1.09891 4.45794 4.22872 1.32812 8.09495 1.32812C11.9612 1.32812 15.091 4.45794 15.091 8.32417C15.091 12.1904 11.9612 15.3202 8.09495 15.3202C6.89826 15.3202 5.79362 15.0441 4.78103 14.4917L1.18645 15.66C1.12845 15.6788 1.06784 15.6884 1.00685 15.6884C0.890025 15.6884 0.874023 15.5317 0.914799 15.4123L2.11149 11.8222C1.46712 10.8096 1.09891 9.61292 1.09891 8.32417ZM11.9612 9.79702C12.1453 9.88908 12.3294 9.98113 12.3294 10.0732C12.4214 10.2573 12.4214 10.7176 12.2373 11.1778C12.1066 11.57 11.6047 11.9157 11.1927 12.1162C10.9179 12.25 10.6099 12.2825 10.3042 12.2825C10.0281 12.2825 9.38369 12.1904 8.27906 11.7301C7.08236 11.2699 5.79362 10.1652 4.87309 8.78444C4.59693 8.41622 3.95255 7.49569 3.95255 6.57516C3.95255 5.56257 4.41282 4.9182 4.78103 4.7341C5.05719 4.54999 5.70157 4.45794 5.79362 4.45794C5.88567 4.45794 5.88567 4.45794 5.88567 4.45794C6.16183 4.45794 6.34594 4.64204 6.43799 4.9182C6.76318 5.89375 7.41751 6.79234 6.53005 7.6798C6.45608 7.75377 6.46065 7.74938 6.39592 7.80691C6.72647 8.32417 7.63468 9.42881 8.92343 9.98113C9.0452 10.0333 9.16092 10.0732 9.29164 10.0732C9.38369 9.98113 9.76653 9.53448 9.90629 9.34513C10.046 9.15577 10.2122 9.0606 10.3042 9.0606C10.8182 9.11108 11.4843 9.55857 11.9612 9.79702Z" fill="#1A1A1A"/>
</g>
</svg>
