<svg width="18" height="18" viewBox="0 0 18 18" fill="none" xmlns="http://www.w3.org/2000/svg">
<mask id="mask0_4276_4748" style="mask-type:alpha" maskUnits="userSpaceOnUse" x="0" y="0" width="18" height="18">
<rect width="18" height="18" fill="#D9D9D9"/>
</mask>
<g mask="url(#mask0_4276_4748)">
<path d="M10.7011 11.618C10.9541 11.8709 11.3641 11.8709 11.6171 11.618C11.87 11.3651 11.87 10.955 11.6171 10.7021L9.6544 8.73947V6.38429C9.6544 6.02297 9.3615 5.73007 9.00018 5.73007C8.63887 5.73007 8.34597 6.02297 8.34597 6.38429V9.26285L10.7011 11.618ZM9.00018 15.5433C8.09518 15.5433 7.2447 15.3716 6.44873 15.0281C5.65277 14.6847 4.96039 14.2185 4.37159 13.6297C3.7828 13.041 3.31667 12.3486 2.9732 11.5526C2.62974 10.7566 2.45801 9.90616 2.45801 9.00116C2.45801 8.09616 2.62974 7.24568 2.9732 6.44971C3.31667 5.65375 3.7828 4.96137 4.37159 4.37257C4.96039 3.78377 5.65277 3.31764 6.44873 2.97418C7.2447 2.63072 8.09518 2.45898 9.00018 2.45898C9.90518 2.45898 10.7557 2.63072 11.5516 2.97418C12.3476 3.31764 13.04 3.78377 13.6288 4.37257C14.2176 4.96137 14.6837 5.65375 15.0272 6.44971C15.3706 7.24568 15.5424 8.09616 15.5424 9.00116C15.5424 9.90616 15.3706 10.7566 15.0272 11.5526C14.6837 12.3486 14.2176 13.041 13.6288 13.6297C13.04 14.2185 12.3476 14.6847 11.5516 15.0281C10.7557 15.3716 9.90518 15.5433 9.00018 15.5433Z" fill="#CCCCCC"/>
</g>
</svg>
