<svg width="24" height="24" viewBox="0 0 24 24" fill="none" xmlns="http://www.w3.org/2000/svg">
<path d="M19.6076 14.6242C19.867 13.846 20.0027 13.0319 20.0097 12.2117C20.0295 11.2477 19.7953 10.2955 19.3306 9.45063C19.1052 9.06877 18.8005 8.73969 18.4371 8.48561C18.0328 8.21595 17.5559 8.07571 17.07 8.08352H15.1399C15.0916 8.08513 15.0435 8.0764 14.9988 8.05791C14.9541 8.03941 14.9139 8.01159 14.8808 7.97629C14.8151 7.90558 14.7771 7.81361 14.7736 7.71716V7.61887L15.4974 5.98369C15.6448 5.64546 15.7209 5.28043 15.7207 4.91144C15.7201 4.20074 15.4373 3.51937 14.9344 3.01714L14.7378 2.82056C14.5572 2.64148 14.3404 2.50305 14.1019 2.4145C13.8634 2.32595 13.6088 2.28933 13.355 2.3071C13.1013 2.32486 12.8542 2.39659 12.6304 2.5175C12.4066 2.63841 12.2112 2.8057 12.0572 3.0082L9.09589 6.91084C8.51857 7.67167 8.20607 8.60051 8.2061 9.55558L8.20638 17.7461C8.2064 18.6038 8.54157 19.6064 9.39543 19.6884C9.46786 19.6954 9.54462 19.6991 9.62679 19.6996H15.0685C15.6585 19.7053 16.2391 19.5509 16.7483 19.2528C17.4788 18.7908 18.0666 18.135 18.446 17.3585C18.9099 16.4816 19.2985 15.5669 19.6076 14.6242Z" fill="#FF5277"/>
<rect x="3.9873" y="8.08398" width="2.98691" height="11.616" rx="1.45833" fill="#FF5277"/>
</svg>
