<svg width="16" height="16" viewBox="0 0 16 16" fill="none" xmlns="http://www.w3.org/2000/svg">
<path d="M6.87252 3.49388C6.87252 2.82545 6.67431 2.17204 6.30295 1.61626C5.93159 1.06049 5.40377 0.627313 4.78622 0.371517C4.16868 0.115722 3.48915 0.0487944 2.83357 0.179198C2.17799 0.309601 1.5758 0.631478 1.10315 1.10413C0.630502 1.57677 0.308625 2.17896 0.178221 2.83455C0.0478179 3.49013 0.114746 4.16966 0.370541 4.7872C0.626336 5.40475 1.05951 5.93257 1.61529 6.30393C2.17106 6.67528 2.82448 6.8735 3.4929 6.8735C4.38923 6.8735 5.24885 6.51743 5.88265 5.88363C6.51645 5.24983 6.87252 4.39021 6.87252 3.49388ZM2.36636 3.49388C2.36636 3.27107 2.43243 3.05326 2.55622 2.86801C2.68 2.68275 2.85595 2.53836 3.06179 2.45309C3.26764 2.36783 3.49415 2.34552 3.71268 2.38898C3.93121 2.43245 4.13194 2.53974 4.28948 2.69729C4.44703 2.85484 4.55433 3.05557 4.59779 3.2741C4.64126 3.49263 4.61895 3.71914 4.53369 3.92499C4.44842 4.13083 4.30403 4.30677 4.11877 4.43056C3.93351 4.55435 3.71571 4.62042 3.4929 4.62042C3.19412 4.62042 2.90758 4.50173 2.69632 4.29046C2.48505 4.07919 2.36636 3.79265 2.36636 3.49388ZM12.5052 9.12657C11.8368 9.12657 11.1834 9.32479 10.6276 9.69614C10.0718 10.0675 9.63865 10.5953 9.38286 11.2129C9.12706 11.8304 9.06013 12.5099 9.19054 13.1655C9.32094 13.8211 9.64282 14.4233 10.1155 14.8959C10.5881 15.3686 11.1903 15.6905 11.8459 15.8209C12.5015 15.9513 13.181 15.8843 13.7985 15.6286C14.4161 15.3728 14.9439 14.9396 15.3153 14.3838C15.6866 13.828 15.8848 13.1746 15.8848 12.5062C15.8848 11.6099 15.5288 10.7502 14.895 10.1164C14.2612 9.48264 13.4015 9.12657 12.5052 9.12657ZM12.5052 13.6327C12.2824 13.6327 12.0646 13.5667 11.8793 13.4429C11.6941 13.3191 11.5497 13.1431 11.4644 12.9373C11.3792 12.7315 11.3569 12.5049 11.4003 12.2864C11.4438 12.0679 11.5511 11.8672 11.7086 11.7096C11.8662 11.5521 12.0669 11.4448 12.2854 11.4013C12.504 11.3578 12.7305 11.3801 12.9363 11.4654C13.1422 11.5507 13.3181 11.6951 13.4419 11.8803C13.5657 12.0656 13.6318 12.2834 13.6318 12.5062C13.6318 12.805 13.5131 13.0915 13.3018 13.3028C13.0905 13.514 12.804 13.6327 12.5052 13.6327ZM14.4316 3.16718L3.1662 14.4326C2.95407 14.6447 2.66636 14.7639 2.36636 14.7639C2.06636 14.7639 1.77865 14.6447 1.56652 14.4326C1.35439 14.2204 1.23521 13.9327 1.23521 13.6327C1.23521 13.3327 1.35439 13.045 1.56652 12.8329L12.8319 1.56749C13.044 1.35536 13.3318 1.23619 13.6318 1.23619C13.9318 1.23619 14.2195 1.35536 14.4316 1.56749C14.6437 1.77963 14.7629 2.06734 14.7629 2.36734C14.7629 2.66734 14.6437 2.95505 14.4316 3.16718Z" fill="#FF5277"/>
</svg>
